solid OpenSCAD_Model
  facet normal -1 0 0
    outer loop
      vertex -21.1 -13.5313 -47
      vertex -21.1 13.5313 0
      vertex -21.1 13.5313 -47
    endloop
  endfacet
  facet normal -1 -0 0
    outer loop
      vertex -21.1 13.5313 0
      vertex -21.1 -13.5313 -47
      vertex -21.1 -13.5313 0
    endloop
  endfacet
  facet normal -0 0 1
    outer loop
      vertex -21.1 13.5313 0
      vertex -10.1627 4.20952 0
      vertex -15.5 13.975 0
    endloop
  endfacet
  facet normal 0 0 1
    outer loop
      vertex -11 0 0
      vertex -14.1793 -14.7375 0
      vertex -13.975 -15.5 0
    endloop
  endfacet
  facet normal 0 0 1
    outer loop
      vertex -10.1627 4.20952 0
      vertex -21.1 13.5313 0
      vertex -10.7886 2.14599 0
    endloop
  endfacet
  facet normal 0 0 1
    outer loop
      vertex -11 0 0
      vertex -14.7375 -14.1793 0
      vertex -14.1793 -14.7375 0
    endloop
  endfacet
  facet normal 0 0 1
    outer loop
      vertex -10.7886 2.14599 0
      vertex -21.1 13.5313 0
      vertex -11 0 0
    endloop
  endfacet
  facet normal 0 0 1
    outer loop
      vertex -11 0 0
      vertex -15.5 -13.975 0
      vertex -14.7375 -14.1793 0
    endloop
  endfacet
  facet normal 0 0 1
    outer loop
      vertex -21.1 13.5313 0
      vertex -15.5 13.975 0
      vertex -16.2625 14.1793 0
    endloop
  endfacet
  facet normal 0 0 1
    outer loop
      vertex -21.1 -13.5313 0
      vertex -11 0 0
      vertex -21.1 13.5313 0
    endloop
  endfacet
  facet normal 0 0 1
    outer loop
      vertex -21.1 13.5313 0
      vertex -16.2625 14.1793 0
      vertex -16.8207 14.7375 0
    endloop
  endfacet
  facet normal 0 0 1
    outer loop
      vertex -11 0 0
      vertex -21.1 -13.5313 0
      vertex -15.5 -13.975 0
    endloop
  endfacet
  facet normal 0 0 1
    outer loop
      vertex -21.1 13.5313 0
      vertex -16.8207 14.7375 0
      vertex -17.025 15.5 0
    endloop
  endfacet
  facet normal 0 0 1
    outer loop
      vertex -15.5 -13.975 0
      vertex -21.1 -13.5313 0
      vertex -16.2625 -14.1793 0
    endloop
  endfacet
  facet normal 0 0 1
    outer loop
      vertex -4.20952 -10.1627 0
      vertex -13.975 -15.5 0
      vertex -13.5313 -21.1 0
    endloop
  endfacet
  facet normal -0 0 1
    outer loop
      vertex -14.1793 -16.2625 0
      vertex -13.5313 -21.1 0
      vertex -13.975 -15.5 0
    endloop
  endfacet
  facet normal -0 0 1
    outer loop
      vertex -14.7375 -16.8207 0
      vertex -13.5313 -21.1 0
      vertex -14.1793 -16.2625 0
    endloop
  endfacet
  facet normal 0 0 1
    outer loop
      vertex -14.7375 -16.8207 0
      vertex -14.7534 -20.3063 0
      vertex -13.5313 -21.1 0
    endloop
  endfacet
  facet normal -0 0 1
    outer loop
      vertex -15.5 -17.025 0
      vertex -14.7534 -20.3063 0
      vertex -14.7375 -16.8207 0
    endloop
  endfacet
  facet normal 0 0 1
    outer loop
      vertex -16.7952 -18.6529 0
      vertex -15.5 -17.025 0
      vertex -16.2625 -16.8207 0
    endloop
  endfacet
  facet normal 0 0 1
    outer loop
      vertex -15.5 -17.025 0
      vertex -16.7952 -18.6529 0
      vertex -14.7534 -20.3063 0
    endloop
  endfacet
  facet normal 0 0 1
    outer loop
      vertex -16.8207 -16.2625 0
      vertex -16.7952 -18.6529 0
      vertex -16.2625 -16.8207 0
    endloop
  endfacet
  facet normal 0 0 1
    outer loop
      vertex -18.6529 -16.7952 0
      vertex -16.8207 -16.2625 0
      vertex -17.025 -15.5 0
    endloop
  endfacet
  facet normal 0 0 1
    outer loop
      vertex -16.8207 -16.2625 0
      vertex -18.6529 -16.7952 0
      vertex -16.7952 -18.6529 0
    endloop
  endfacet
  facet normal 0 0 1
    outer loop
      vertex -16.2625 -14.1793 0
      vertex -21.1 -13.5313 0
      vertex -16.8207 -14.7375 0
    endloop
  endfacet
  facet normal 0 0 1
    outer loop
      vertex -21.1 13.5313 0
      vertex -18.6529 16.7952 0
      vertex -20.3063 14.7534 0
    endloop
  endfacet
  facet normal 0 -0 1
    outer loop
      vertex -20.3063 -14.7534 0
      vertex -16.8207 -14.7375 0
      vertex -21.1 -13.5313 0
    endloop
  endfacet
  facet normal 0 0 1
    outer loop
      vertex -16.8207 -14.7375 0
      vertex -20.3063 -14.7534 0
      vertex -17.025 -15.5 0
    endloop
  endfacet
  facet normal 0 0 1
    outer loop
      vertex -17.025 -15.5 0
      vertex -20.3063 -14.7534 0
      vertex -18.6529 -16.7952 0
    endloop
  endfacet
  facet normal -0 0 1
    outer loop
      vertex 7.77817 -7.77817 0
      vertex 14.7375 -14.1793 0
      vertex 9.14616 -6.11127 0
    endloop
  endfacet
  facet normal 0 0 1
    outer loop
      vertex 14.7375 -14.1793 0
      vertex 7.77817 -7.77817 0
      vertex 14.1793 -14.7375 0
    endloop
  endfacet
  facet normal -0 0 1
    outer loop
      vertex 6.11127 -9.14616 0
      vertex 14.1793 -14.7375 0
      vertex 7.77817 -7.77817 0
    endloop
  endfacet
  facet normal 0 0 1
    outer loop
      vertex 14.1793 -14.7375 0
      vertex 6.11127 -9.14616 0
      vertex 13.975 -15.5 0
    endloop
  endfacet
  facet normal -0 0 1
    outer loop
      vertex 4.20952 -10.1627 0
      vertex 13.975 -15.5 0
      vertex 6.11127 -9.14616 0
    endloop
  endfacet
  facet normal 0 0 1
    outer loop
      vertex 13.975 -15.5 0
      vertex 4.20952 -10.1627 0
      vertex 13.5313 -21.1 0
    endloop
  endfacet
  facet normal -0 0 1
    outer loop
      vertex 2.14599 -10.7886 0
      vertex 13.5313 -21.1 0
      vertex 4.20952 -10.1627 0
    endloop
  endfacet
  facet normal -0 0 1
    outer loop
      vertex 0 -11 0
      vertex 13.5313 -21.1 0
      vertex 2.14599 -10.7886 0
    endloop
  endfacet
  facet normal 0 0 1
    outer loop
      vertex -13.5313 -21.1 0
      vertex 0 -11 0
      vertex -2.14599 -10.7886 0
    endloop
  endfacet
  facet normal 0 0 1
    outer loop
      vertex -13.5313 -21.1 0
      vertex -2.14599 -10.7886 0
      vertex -4.20952 -10.1627 0
    endloop
  endfacet
  facet normal 0 0 1
    outer loop
      vertex -13.975 -15.5 0
      vertex -4.20952 -10.1627 0
      vertex -6.11127 -9.14616 0
    endloop
  endfacet
  facet normal -0 0 1
    outer loop
      vertex -15.5 13.975 0
      vertex -9.14616 6.11127 0
      vertex -14.7375 14.1793 0
    endloop
  endfacet
  facet normal 0 0 1
    outer loop
      vertex 0 -11 0
      vertex -13.5313 -21.1 0
      vertex 13.5313 -21.1 0
    endloop
  endfacet
  facet normal 0 0 1
    outer loop
      vertex -13.975 -15.5 0
      vertex -6.11127 -9.14616 0
      vertex -7.77817 -7.77817 0
    endloop
  endfacet
  facet normal 0 0 1
    outer loop
      vertex -13.975 -15.5 0
      vertex -7.77817 -7.77817 0
      vertex -9.14616 -6.11127 0
    endloop
  endfacet
  facet normal 0 0 1
    outer loop
      vertex -13.975 -15.5 0
      vertex -9.14616 -6.11127 0
      vertex -10.1627 -4.20952 0
    endloop
  endfacet
  facet normal 0 0 1
    outer loop
      vertex -13.975 -15.5 0
      vertex -10.1627 -4.20952 0
      vertex -10.7886 -2.14599 0
    endloop
  endfacet
  facet normal 0 0 1
    outer loop
      vertex -9.14616 6.11127 0
      vertex -15.5 13.975 0
      vertex -10.1627 4.20952 0
    endloop
  endfacet
  facet normal 0 0 1
    outer loop
      vertex -13.975 -15.5 0
      vertex -10.7886 -2.14599 0
      vertex -11 0 0
    endloop
  endfacet
  facet normal 0 0 1
    outer loop
      vertex -13.5313 21.1 0
      vertex -14.1793 16.2625 0
      vertex -13.975 15.5 0
    endloop
  endfacet
  facet normal 0 0 1
    outer loop
      vertex -13.5313 21.1 0
      vertex -14.7375 16.8207 0
      vertex -14.1793 16.2625 0
    endloop
  endfacet
  facet normal -0 0 1
    outer loop
      vertex -14.7534 20.3063 0
      vertex -14.7375 16.8207 0
      vertex -13.5313 21.1 0
    endloop
  endfacet
  facet normal 0 0 1
    outer loop
      vertex -14.7534 20.3063 0
      vertex -15.5 17.025 0
      vertex -14.7375 16.8207 0
    endloop
  endfacet
  facet normal -0 0 1
    outer loop
      vertex -16.7952 18.6529 0
      vertex -15.5 17.025 0
      vertex -14.7534 20.3063 0
    endloop
  endfacet
  facet normal 0 0 1
    outer loop
      vertex -15.5 17.025 0
      vertex -16.7952 18.6529 0
      vertex -16.2625 16.8207 0
    endloop
  endfacet
  facet normal 0 0 1
    outer loop
      vertex -16.7952 18.6529 0
      vertex -16.8207 16.2625 0
      vertex -16.2625 16.8207 0
    endloop
  endfacet
  facet normal -0 0 1
    outer loop
      vertex -18.6529 16.7952 0
      vertex -16.8207 16.2625 0
      vertex -16.7952 18.6529 0
    endloop
  endfacet
  facet normal 0 0 1
    outer loop
      vertex -21.1 13.5313 0
      vertex -17.025 15.5 0
      vertex -18.6529 16.7952 0
    endloop
  endfacet
  facet normal 0 0 1
    outer loop
      vertex -16.8207 16.2625 0
      vertex -18.6529 16.7952 0
      vertex -17.025 15.5 0
    endloop
  endfacet
  facet normal -0 0 1
    outer loop
      vertex 15.5 13.975 0
      vertex 21.1 13.5313 0
      vertex 16.2625 14.1793 0
    endloop
  endfacet
  facet normal 0 0 1
    outer loop
      vertex 21.1 -13.5313 0
      vertex 16.8207 -14.7375 0
      vertex 17.025 -15.5 0
    endloop
  endfacet
  facet normal 0 0 1
    outer loop
      vertex 21.1 13.5313 0
      vertex 11 0 0
      vertex 21.1 -13.5313 0
    endloop
  endfacet
  facet normal -0 0 1
    outer loop
      vertex 10.7886 -2.14599 0
      vertex 21.1 -13.5313 0
      vertex 11 0 0
    endloop
  endfacet
  facet normal 0 0 1
    outer loop
      vertex 21.1 13.5313 0
      vertex 15.5 13.975 0
      vertex 10.1627 4.20952 0
    endloop
  endfacet
  facet normal 0 0 1
    outer loop
      vertex 21.1 -13.5313 0
      vertex 16.2625 -14.1793 0
      vertex 16.8207 -14.7375 0
    endloop
  endfacet
  facet normal 0 0 1
    outer loop
      vertex 9.14616 6.11127 0
      vertex 15.5 13.975 0
      vertex 14.7375 14.1793 0
    endloop
  endfacet
  facet normal 0 0 1
    outer loop
      vertex 21.1 -13.5313 0
      vertex 15.5 -13.975 0
      vertex 16.2625 -14.1793 0
    endloop
  endfacet
  facet normal 0 0 1
    outer loop
      vertex 7.77817 7.77817 0
      vertex 14.7375 14.1793 0
      vertex 14.1793 14.7375 0
    endloop
  endfacet
  facet normal -0 0 1
    outer loop
      vertex 10.1627 -4.20952 0
      vertex 21.1 -13.5313 0
      vertex 10.7886 -2.14599 0
    endloop
  endfacet
  facet normal 0 0 1
    outer loop
      vertex 6.11127 9.14616 0
      vertex 14.1793 14.7375 0
      vertex 13.975 15.5 0
    endloop
  endfacet
  facet normal 0 0 1
    outer loop
      vertex 21.1 -13.5313 0
      vertex 10.1627 -4.20952 0
      vertex 15.5 -13.975 0
    endloop
  endfacet
  facet normal 0 0 1
    outer loop
      vertex 16.8207 14.7375 0
      vertex 20.3063 14.7534 0
      vertex 17.025 15.5 0
    endloop
  endfacet
  facet normal 0 0 1
    outer loop
      vertex 20.3063 14.7534 0
      vertex 16.8207 14.7375 0
      vertex 21.1 13.5313 0
    endloop
  endfacet
  facet normal -0 0 1
    outer loop
      vertex 17.025 15.5 0
      vertex 20.3063 14.7534 0
      vertex 18.6529 16.7952 0
    endloop
  endfacet
  facet normal -0 0 1
    outer loop
      vertex 16.2625 14.1793 0
      vertex 21.1 13.5313 0
      vertex 16.8207 14.7375 0
    endloop
  endfacet
  facet normal 0 0 1
    outer loop
      vertex 21.1 -13.5313 0
      vertex 17.025 -15.5 0
      vertex 20.3063 -14.7534 0
    endloop
  endfacet
  facet normal 0 0 1
    outer loop
      vertex 18.6529 16.7952 0
      vertex 16.8207 16.2625 0
      vertex 17.025 15.5 0
    endloop
  endfacet
  facet normal 0 0 1
    outer loop
      vertex 16.7952 18.6529 0
      vertex 16.8207 16.2625 0
      vertex 18.6529 16.7952 0
    endloop
  endfacet
  facet normal 0 0 1
    outer loop
      vertex 16.7952 18.6529 0
      vertex 16.2625 16.8207 0
      vertex 16.8207 16.2625 0
    endloop
  endfacet
  facet normal 0 0 1
    outer loop
      vertex 16.7952 18.6529 0
      vertex 15.5 17.025 0
      vertex 16.2625 16.8207 0
    endloop
  endfacet
  facet normal 0 0 1
    outer loop
      vertex 14.7534 20.3063 0
      vertex 15.5 17.025 0
      vertex 16.7952 18.6529 0
    endloop
  endfacet
  facet normal 0 0 1
    outer loop
      vertex 14.7534 20.3063 0
      vertex 14.7375 16.8207 0
      vertex 15.5 17.025 0
    endloop
  endfacet
  facet normal 0 0 1
    outer loop
      vertex 13.5313 21.1 0
      vertex 14.7375 16.8207 0
      vertex 14.7534 20.3063 0
    endloop
  endfacet
  facet normal 0 0 1
    outer loop
      vertex 14.7375 16.8207 0
      vertex 13.5313 21.1 0
      vertex 14.1793 16.2625 0
    endloop
  endfacet
  facet normal 0 0 1
    outer loop
      vertex 4.20952 10.1627 0
      vertex 13.975 15.5 0
      vertex 13.5313 21.1 0
    endloop
  endfacet
  facet normal 0 0 1
    outer loop
      vertex 14.1793 16.2625 0
      vertex 13.5313 21.1 0
      vertex 13.975 15.5 0
    endloop
  endfacet
  facet normal 0 0 1
    outer loop
      vertex 20.3063 -14.7534 0
      vertex 17.025 -15.5 0
      vertex 18.6529 -16.7952 0
    endloop
  endfacet
  facet normal -0 0 1
    outer loop
      vertex 16.8207 -16.2625 0
      vertex 18.6529 -16.7952 0
      vertex 17.025 -15.5 0
    endloop
  endfacet
  facet normal 0 0 1
    outer loop
      vertex 16.8207 -16.2625 0
      vertex 16.7952 -18.6529 0
      vertex 18.6529 -16.7952 0
    endloop
  endfacet
  facet normal -0 0 1
    outer loop
      vertex 16.2625 -16.8207 0
      vertex 16.7952 -18.6529 0
      vertex 16.8207 -16.2625 0
    endloop
  endfacet
  facet normal -0 0 1
    outer loop
      vertex 15.5 -17.025 0
      vertex 16.7952 -18.6529 0
      vertex 16.2625 -16.8207 0
    endloop
  endfacet
  facet normal 0 0 1
    outer loop
      vertex 15.5 -17.025 0
      vertex 14.7534 -20.3063 0
      vertex 16.7952 -18.6529 0
    endloop
  endfacet
  facet normal 0 0 1
    outer loop
      vertex 14.7375 -16.8207 0
      vertex 14.7534 -20.3063 0
      vertex 15.5 -17.025 0
    endloop
  endfacet
  facet normal 0 0 1
    outer loop
      vertex 13.5313 -21.1 0
      vertex 14.7375 -16.8207 0
      vertex 14.1793 -16.2625 0
    endloop
  endfacet
  facet normal 0 0 1
    outer loop
      vertex 13.5313 -21.1 0
      vertex 14.1793 -16.2625 0
      vertex 13.975 -15.5 0
    endloop
  endfacet
  facet normal 0 0 1
    outer loop
      vertex 14.7375 -16.8207 0
      vertex 13.5313 -21.1 0
      vertex 14.7534 -20.3063 0
    endloop
  endfacet
  facet normal -0 0 1
    outer loop
      vertex 9.14616 -6.11127 0
      vertex 15.5 -13.975 0
      vertex 10.1627 -4.20952 0
    endloop
  endfacet
  facet normal 0 0 1
    outer loop
      vertex 15.5 -13.975 0
      vertex 9.14616 -6.11127 0
      vertex 14.7375 -14.1793 0
    endloop
  endfacet
  facet normal 0 0 1
    outer loop
      vertex 21.1 13.5313 0
      vertex 10.7886 2.14599 0
      vertex 11 0 0
    endloop
  endfacet
  facet normal 0 0 1
    outer loop
      vertex 21.1 13.5313 0
      vertex 10.1627 4.20952 0
      vertex 10.7886 2.14599 0
    endloop
  endfacet
  facet normal 0 0 1
    outer loop
      vertex 15.5 13.975 0
      vertex 9.14616 6.11127 0
      vertex 10.1627 4.20952 0
    endloop
  endfacet
  facet normal 0 0 1
    outer loop
      vertex 14.7375 14.1793 0
      vertex 7.77817 7.77817 0
      vertex 9.14616 6.11127 0
    endloop
  endfacet
  facet normal 0 0 1
    outer loop
      vertex 14.1793 14.7375 0
      vertex 6.11127 9.14616 0
      vertex 7.77817 7.77817 0
    endloop
  endfacet
  facet normal 0 0 1
    outer loop
      vertex 13.975 15.5 0
      vertex 4.20952 10.1627 0
      vertex 6.11127 9.14616 0
    endloop
  endfacet
  facet normal 0 0 1
    outer loop
      vertex 13.5313 21.1 0
      vertex 2.14599 10.7886 0
      vertex 4.20952 10.1627 0
    endloop
  endfacet
  facet normal 0 0 1
    outer loop
      vertex 13.5313 21.1 0
      vertex 0 11 0
      vertex 2.14599 10.7886 0
    endloop
  endfacet
  facet normal -0 0 1
    outer loop
      vertex -13.5313 21.1 0
      vertex 0 11 0
      vertex 13.5313 21.1 0
    endloop
  endfacet
  facet normal 0 0 1
    outer loop
      vertex 0 11 0
      vertex -13.5313 21.1 0
      vertex -2.14599 10.7886 0
    endloop
  endfacet
  facet normal 0 0 1
    outer loop
      vertex -2.14599 10.7886 0
      vertex -13.5313 21.1 0
      vertex -4.20952 10.1627 0
    endloop
  endfacet
  facet normal 0 0 1
    outer loop
      vertex -7.77817 7.77817 0
      vertex -14.7375 14.1793 0
      vertex -9.14616 6.11127 0
    endloop
  endfacet
  facet normal -0 0 1
    outer loop
      vertex -14.7375 14.1793 0
      vertex -7.77817 7.77817 0
      vertex -14.1793 14.7375 0
    endloop
  endfacet
  facet normal 0 0 1
    outer loop
      vertex -6.11127 9.14616 0
      vertex -14.1793 14.7375 0
      vertex -7.77817 7.77817 0
    endloop
  endfacet
  facet normal -0 0 1
    outer loop
      vertex -14.1793 14.7375 0
      vertex -6.11127 9.14616 0
      vertex -13.975 15.5 0
    endloop
  endfacet
  facet normal 0 0 1
    outer loop
      vertex -4.20952 10.1627 0
      vertex -13.975 15.5 0
      vertex -6.11127 9.14616 0
    endloop
  endfacet
  facet normal -0 0 1
    outer loop
      vertex -13.975 15.5 0
      vertex -4.20952 10.1627 0
      vertex -13.5313 21.1 0
    endloop
  endfacet
  facet normal 1 -0 0
    outer loop
      vertex 21.1 -13.5313 0
      vertex 21.1 13.5313 -47
      vertex 21.1 13.5313 0
    endloop
  endfacet
  facet normal 1 0 0
    outer loop
      vertex 21.1 13.5313 -47
      vertex 21.1 -13.5313 0
      vertex 21.1 -13.5313 -47
    endloop
  endfacet
  facet normal 0 0 -1
    outer loop
      vertex 18.6529 -16.7952 -47
      vertex 21.1 -13.5313 -47
      vertex 20.3063 -14.7534 -47
    endloop
  endfacet
  facet normal -0 0 -1
    outer loop
      vertex 21.1 -13.5313 -47
      vertex 18.6529 -16.7952 -47
      vertex 21.1 13.5313 -47
    endloop
  endfacet
  facet normal 0 0 -1
    outer loop
      vertex 18.6529 16.7952 -47
      vertex 21.1 13.5313 -47
      vertex 18.6529 -16.7952 -47
    endloop
  endfacet
  facet normal 0 0 -1
    outer loop
      vertex 21.1 13.5313 -47
      vertex 18.6529 16.7952 -47
      vertex 20.3063 14.7534 -47
    endloop
  endfacet
  facet normal 0 0 -1
    outer loop
      vertex 16.7952 -18.6529 -47
      vertex 18.6529 16.7952 -47
      vertex 18.6529 -16.7952 -47
    endloop
  endfacet
  facet normal 0 0 -1
    outer loop
      vertex 16.7952 -18.6529 -47
      vertex 16.7952 18.6529 -47
      vertex 18.6529 16.7952 -47
    endloop
  endfacet
  facet normal 0 0 -1
    outer loop
      vertex 13.5313 -21.1 -47
      vertex 16.7952 -18.6529 -47
      vertex 14.7534 -20.3063 -47
    endloop
  endfacet
  facet normal -0 0 -1
    outer loop
      vertex 16.7952 -18.6529 -47
      vertex 13.5313 -21.1 -47
      vertex 16.7952 18.6529 -47
    endloop
  endfacet
  facet normal 0 0 -1
    outer loop
      vertex 13.5313 21.1 -47
      vertex 16.7952 18.6529 -47
      vertex 13.5313 -21.1 -47
    endloop
  endfacet
  facet normal 0 0 -1
    outer loop
      vertex 16.7952 18.6529 -47
      vertex 13.5313 21.1 -47
      vertex 14.7534 20.3063 -47
    endloop
  endfacet
  facet normal 0 0 -1
    outer loop
      vertex -13.5313 -21.1 -47
      vertex 13.5313 21.1 -47
      vertex 13.5313 -21.1 -47
    endloop
  endfacet
  facet normal 0 0 -1
    outer loop
      vertex -13.5313 -21.1 -47
      vertex -13.5313 21.1 -47
      vertex 13.5313 21.1 -47
    endloop
  endfacet
  facet normal 0 0 -1
    outer loop
      vertex -16.7952 -18.6529 -47
      vertex -13.5313 -21.1 -47
      vertex -14.7534 -20.3063 -47
    endloop
  endfacet
  facet normal 0 0 -1
    outer loop
      vertex -13.5313 -21.1 -47
      vertex -16.7952 -18.6529 -47
      vertex -13.5313 21.1 -47
    endloop
  endfacet
  facet normal 0 0 -1
    outer loop
      vertex -16.7952 18.6529 -47
      vertex -13.5313 21.1 -47
      vertex -16.7952 -18.6529 -47
    endloop
  endfacet
  facet normal 0 0 -1
    outer loop
      vertex -13.5313 21.1 -47
      vertex -16.7952 18.6529 -47
      vertex -14.7534 20.3063 -47
    endloop
  endfacet
  facet normal 0 0 -1
    outer loop
      vertex -18.6529 -16.7952 -47
      vertex -16.7952 18.6529 -47
      vertex -16.7952 -18.6529 -47
    endloop
  endfacet
  facet normal 0 0 -1
    outer loop
      vertex -18.6529 -16.7952 -47
      vertex -18.6529 16.7952 -47
      vertex -16.7952 18.6529 -47
    endloop
  endfacet
  facet normal 0 0 -1
    outer loop
      vertex -21.1 -13.5313 -47
      vertex -18.6529 -16.7952 -47
      vertex -20.3063 -14.7534 -47
    endloop
  endfacet
  facet normal 0 0 -1
    outer loop
      vertex -18.6529 -16.7952 -47
      vertex -21.1 -13.5313 -47
      vertex -18.6529 16.7952 -47
    endloop
  endfacet
  facet normal 0 0 -1
    outer loop
      vertex -21.1 13.5313 -47
      vertex -18.6529 16.7952 -47
      vertex -21.1 -13.5313 -47
    endloop
  endfacet
  facet normal 0 0 -1
    outer loop
      vertex -18.6529 16.7952 -47
      vertex -21.1 13.5313 -47
      vertex -20.3063 14.7534 -47
    endloop
  endfacet
  facet normal 0 -1 0
    outer loop
      vertex -13.5313 -21.1 -47
      vertex 13.5313 -21.1 0
      vertex -13.5313 -21.1 0
    endloop
  endfacet
  facet normal 0 -1 -0
    outer loop
      vertex 13.5313 -21.1 0
      vertex -13.5313 -21.1 -47
      vertex 13.5313 -21.1 -47
    endloop
  endfacet
  facet normal 0 1 -0
    outer loop
      vertex 13.5313 21.1 -47
      vertex -13.5313 21.1 0
      vertex 13.5313 21.1 0
    endloop
  endfacet
  facet normal 0 1 0
    outer loop
      vertex -13.5313 21.1 0
      vertex 13.5313 21.1 -47
      vertex -13.5313 21.1 -47
    endloop
  endfacet
  facet normal 0.707107 0.707107 0
    outer loop
      vertex 18.6529 16.7952 0
      vertex 16.7952 18.6529 -47
      vertex 16.7952 18.6529 0
    endloop
  endfacet
  facet normal 0.707107 0.707107 0
    outer loop
      vertex 16.7952 18.6529 -47
      vertex 18.6529 16.7952 0
      vertex 18.6529 16.7952 -47
    endloop
  endfacet
  facet normal -0.62932 0.777146 0
    outer loop
      vertex -14.7534 20.3063 -47
      vertex -16.7952 18.6529 0
      vertex -14.7534 20.3063 0
    endloop
  endfacet
  facet normal -0.62932 0.777146 0
    outer loop
      vertex -16.7952 18.6529 0
      vertex -14.7534 20.3063 -47
      vertex -16.7952 18.6529 -47
    endloop
  endfacet
  facet normal 0.62932 0.777146 -0
    outer loop
      vertex 16.7952 18.6529 -47
      vertex 14.7534 20.3063 0
      vertex 16.7952 18.6529 0
    endloop
  endfacet
  facet normal 0.62932 0.777146 0
    outer loop
      vertex 14.7534 20.3063 0
      vertex 16.7952 18.6529 -47
      vertex 14.7534 20.3063 -47
    endloop
  endfacet
  facet normal 0.838671 0.544639 0
    outer loop
      vertex 21.1 13.5313 0
      vertex 20.3063 14.7534 -47
      vertex 20.3063 14.7534 0
    endloop
  endfacet
  facet normal 0.838671 0.544639 0
    outer loop
      vertex 20.3063 14.7534 -47
      vertex 21.1 13.5313 0
      vertex 21.1 13.5313 -47
    endloop
  endfacet
  facet normal 0.777146 0.62932 0
    outer loop
      vertex 20.3063 14.7534 0
      vertex 18.6529 16.7952 -47
      vertex 18.6529 16.7952 0
    endloop
  endfacet
  facet normal 0.777146 0.62932 0
    outer loop
      vertex 18.6529 16.7952 -47
      vertex 20.3063 14.7534 0
      vertex 20.3063 14.7534 -47
    endloop
  endfacet
  facet normal 0.544639 0.838671 -0
    outer loop
      vertex 14.7534 20.3063 -47
      vertex 13.5313 21.1 0
      vertex 14.7534 20.3063 0
    endloop
  endfacet
  facet normal 0.544639 0.838671 0
    outer loop
      vertex 13.5313 21.1 0
      vertex 14.7534 20.3063 -47
      vertex 13.5313 21.1 -47
    endloop
  endfacet
  facet normal -0.777146 0.62932 0
    outer loop
      vertex -20.3063 14.7534 -47
      vertex -18.6529 16.7952 0
      vertex -18.6529 16.7952 -47
    endloop
  endfacet
  facet normal -0.777146 0.62932 0
    outer loop
      vertex -18.6529 16.7952 0
      vertex -20.3063 14.7534 -47
      vertex -20.3063 14.7534 0
    endloop
  endfacet
  facet normal -0.707107 0.707107 0
    outer loop
      vertex -18.6529 16.7952 -47
      vertex -16.7952 18.6529 0
      vertex -16.7952 18.6529 -47
    endloop
  endfacet
  facet normal -0.707107 0.707107 0
    outer loop
      vertex -16.7952 18.6529 0
      vertex -18.6529 16.7952 -47
      vertex -18.6529 16.7952 0
    endloop
  endfacet
  facet normal -0.838671 0.544639 0
    outer loop
      vertex -21.1 13.5313 -47
      vertex -20.3063 14.7534 0
      vertex -20.3063 14.7534 -47
    endloop
  endfacet
  facet normal -0.838671 0.544639 0
    outer loop
      vertex -20.3063 14.7534 0
      vertex -21.1 13.5313 -47
      vertex -21.1 13.5313 0
    endloop
  endfacet
  facet normal -0.544639 0.838671 0
    outer loop
      vertex -13.5313 21.1 -47
      vertex -14.7534 20.3063 0
      vertex -13.5313 21.1 0
    endloop
  endfacet
  facet normal -0.544639 0.838671 0
    outer loop
      vertex -14.7534 20.3063 0
      vertex -13.5313 21.1 -47
      vertex -14.7534 20.3063 -47
    endloop
  endfacet
  facet normal 0.62932 -0.777146 0
    outer loop
      vertex 14.7534 -20.3063 -47
      vertex 16.7952 -18.6529 0
      vertex 14.7534 -20.3063 0
    endloop
  endfacet
  facet normal 0.62932 -0.777146 0
    outer loop
      vertex 16.7952 -18.6529 0
      vertex 14.7534 -20.3063 -47
      vertex 16.7952 -18.6529 -47
    endloop
  endfacet
  facet normal 0.777146 -0.62932 0
    outer loop
      vertex 18.6529 -16.7952 0
      vertex 20.3063 -14.7534 -47
      vertex 20.3063 -14.7534 0
    endloop
  endfacet
  facet normal 0.777146 -0.62932 0
    outer loop
      vertex 20.3063 -14.7534 -47
      vertex 18.6529 -16.7952 0
      vertex 18.6529 -16.7952 -47
    endloop
  endfacet
  facet normal -0.707107 -0.707107 0
    outer loop
      vertex -16.7952 -18.6529 -47
      vertex -18.6529 -16.7952 0
      vertex -18.6529 -16.7952 -47
    endloop
  endfacet
  facet normal -0.707107 -0.707107 0
    outer loop
      vertex -18.6529 -16.7952 0
      vertex -16.7952 -18.6529 -47
      vertex -16.7952 -18.6529 0
    endloop
  endfacet
  facet normal -0.544639 -0.838671 0
    outer loop
      vertex -14.7534 -20.3063 -47
      vertex -13.5313 -21.1 0
      vertex -14.7534 -20.3063 0
    endloop
  endfacet
  facet normal -0.544639 -0.838671 -0
    outer loop
      vertex -13.5313 -21.1 0
      vertex -14.7534 -20.3063 -47
      vertex -13.5313 -21.1 -47
    endloop
  endfacet
  facet normal -0.777146 -0.62932 0
    outer loop
      vertex -18.6529 -16.7952 -47
      vertex -20.3063 -14.7534 0
      vertex -20.3063 -14.7534 -47
    endloop
  endfacet
  facet normal -0.777146 -0.62932 0
    outer loop
      vertex -20.3063 -14.7534 0
      vertex -18.6529 -16.7952 -47
      vertex -18.6529 -16.7952 0
    endloop
  endfacet
  facet normal 0.707107 -0.707107 0
    outer loop
      vertex 16.7952 -18.6529 0
      vertex 18.6529 -16.7952 -47
      vertex 18.6529 -16.7952 0
    endloop
  endfacet
  facet normal 0.707107 -0.707107 0
    outer loop
      vertex 18.6529 -16.7952 -47
      vertex 16.7952 -18.6529 0
      vertex 16.7952 -18.6529 -47
    endloop
  endfacet
  facet normal 0.544639 -0.838671 0
    outer loop
      vertex 13.5313 -21.1 -47
      vertex 14.7534 -20.3063 0
      vertex 13.5313 -21.1 0
    endloop
  endfacet
  facet normal 0.544639 -0.838671 0
    outer loop
      vertex 14.7534 -20.3063 0
      vertex 13.5313 -21.1 -47
      vertex 14.7534 -20.3063 -47
    endloop
  endfacet
  facet normal 0.838671 -0.544639 0
    outer loop
      vertex 20.3063 -14.7534 0
      vertex 21.1 -13.5313 -47
      vertex 21.1 -13.5313 0
    endloop
  endfacet
  facet normal 0.838671 -0.544639 0
    outer loop
      vertex 21.1 -13.5313 -47
      vertex 20.3063 -14.7534 0
      vertex 20.3063 -14.7534 -47
    endloop
  endfacet
  facet normal -0.62932 -0.777146 0
    outer loop
      vertex -16.7952 -18.6529 -47
      vertex -14.7534 -20.3063 0
      vertex -16.7952 -18.6529 0
    endloop
  endfacet
  facet normal -0.62932 -0.777146 -0
    outer loop
      vertex -14.7534 -20.3063 0
      vertex -16.7952 -18.6529 -47
      vertex -14.7534 -20.3063 -47
    endloop
  endfacet
  facet normal -0.838671 -0.544639 0
    outer loop
      vertex -20.3063 -14.7534 -47
      vertex -21.1 -13.5313 0
      vertex -21.1 -13.5313 -47
    endloop
  endfacet
  facet normal -0.838671 -0.544639 0
    outer loop
      vertex -21.1 -13.5313 0
      vertex -20.3063 -14.7534 -47
      vertex -20.3063 -14.7534 0
    endloop
  endfacet
  facet normal 0.634393 0.773011 -0
    outer loop
      vertex 7.77817 7.77817 0
      vertex 6.11127 9.14616 2
      vertex 7.77817 7.77817 2
    endloop
  endfacet
  facet normal 0.634393 0.773011 0
    outer loop
      vertex 6.11127 9.14616 2
      vertex 7.77817 7.77817 0
      vertex 6.11127 9.14616 0
    endloop
  endfacet
  facet normal 0.995185 -0.0980176 0
    outer loop
      vertex 10.7886 -2.14599 2
      vertex 11 0 0
      vertex 11 0 2
    endloop
  endfacet
  facet normal 0.995185 -0.0980176 0
    outer loop
      vertex 11 0 0
      vertex 10.7886 -2.14599 2
      vertex 10.7886 -2.14599 0
    endloop
  endfacet
  facet normal -0.290285 -0.95694 0
    outer loop
      vertex -4.20952 -10.1627 0
      vertex -2.14599 -10.7886 2
      vertex -4.20952 -10.1627 2
    endloop
  endfacet
  facet normal -0.290285 -0.95694 -0
    outer loop
      vertex -2.14599 -10.7886 2
      vertex -4.20952 -10.1627 0
      vertex -2.14599 -10.7886 0
    endloop
  endfacet
  facet normal 0.95694 0.290285 0
    outer loop
      vertex 10.7886 2.14599 2
      vertex 10.1627 4.20952 0
      vertex 10.1627 4.20952 2
    endloop
  endfacet
  facet normal 0.95694 0.290285 0
    outer loop
      vertex 10.1627 4.20952 0
      vertex 10.7886 2.14599 2
      vertex 10.7886 2.14599 0
    endloop
  endfacet
  facet normal -0.290285 0.95694 0
    outer loop
      vertex -2.14599 10.7886 0
      vertex -4.20952 10.1627 2
      vertex -2.14599 10.7886 2
    endloop
  endfacet
  facet normal -0.290285 0.95694 0
    outer loop
      vertex -4.20952 10.1627 2
      vertex -2.14599 10.7886 0
      vertex -4.20952 10.1627 0
    endloop
  endfacet
  facet normal -0.881921 0.471397 0
    outer loop
      vertex -10.1627 4.20952 0
      vertex -9.14616 6.11127 2
      vertex -9.14616 6.11127 0
    endloop
  endfacet
  facet normal -0.881921 0.471397 0
    outer loop
      vertex -9.14616 6.11127 2
      vertex -10.1627 4.20952 0
      vertex -10.1627 4.20952 2
    endloop
  endfacet
  facet normal 0.634393 -0.773011 0
    outer loop
      vertex 6.11127 -9.14616 0
      vertex 7.77817 -7.77817 2
      vertex 6.11127 -9.14616 2
    endloop
  endfacet
  facet normal 0.634393 -0.773011 0
    outer loop
      vertex 7.77817 -7.77817 2
      vertex 6.11127 -9.14616 0
      vertex 7.77817 -7.77817 0
    endloop
  endfacet
  facet normal 0.881921 0.471397 0
    outer loop
      vertex 10.1627 4.20952 2
      vertex 9.14616 6.11127 0
      vertex 9.14616 6.11127 2
    endloop
  endfacet
  facet normal 0.881921 0.471397 0
    outer loop
      vertex 9.14616 6.11127 0
      vertex 10.1627 4.20952 2
      vertex 10.1627 4.20952 0
    endloop
  endfacet
  facet normal 0.773011 0.634393 0
    outer loop
      vertex 9.14616 6.11127 2
      vertex 7.77817 7.77817 0
      vertex 7.77817 7.77817 2
    endloop
  endfacet
  facet normal 0.773011 0.634393 0
    outer loop
      vertex 7.77817 7.77817 0
      vertex 9.14616 6.11127 2
      vertex 9.14616 6.11127 0
    endloop
  endfacet
  facet normal 0.471397 0.881921 -0
    outer loop
      vertex 6.11127 9.14616 0
      vertex 4.20952 10.1627 2
      vertex 6.11127 9.14616 2
    endloop
  endfacet
  facet normal 0.471397 0.881921 0
    outer loop
      vertex 4.20952 10.1627 2
      vertex 6.11127 9.14616 0
      vertex 4.20952 10.1627 0
    endloop
  endfacet
  facet normal 0.0980176 0.995185 -0
    outer loop
      vertex 2.14599 10.7886 0
      vertex 0 11 2
      vertex 2.14599 10.7886 2
    endloop
  endfacet
  facet normal 0.0980176 0.995185 0
    outer loop
      vertex 0 11 2
      vertex 2.14599 10.7886 0
      vertex 0 11 0
    endloop
  endfacet
  facet normal -0.995185 0.0980176 0
    outer loop
      vertex -11 0 0
      vertex -10.7886 2.14599 2
      vertex -10.7886 2.14599 0
    endloop
  endfacet
  facet normal -0.995185 0.0980176 0
    outer loop
      vertex -10.7886 2.14599 2
      vertex -11 0 0
      vertex -11 0 2
    endloop
  endfacet
  facet normal -0.773011 0.634393 0
    outer loop
      vertex -9.14616 6.11127 0
      vertex -7.77817 7.77817 2
      vertex -7.77817 7.77817 0
    endloop
  endfacet
  facet normal -0.773011 0.634393 0
    outer loop
      vertex -7.77817 7.77817 2
      vertex -9.14616 6.11127 0
      vertex -9.14616 6.11127 2
    endloop
  endfacet
  facet normal -0.471397 0.881921 0
    outer loop
      vertex -4.20952 10.1627 0
      vertex -6.11127 9.14616 2
      vertex -4.20952 10.1627 2
    endloop
  endfacet
  facet normal -0.471397 0.881921 0
    outer loop
      vertex -6.11127 9.14616 2
      vertex -4.20952 10.1627 0
      vertex -6.11127 9.14616 0
    endloop
  endfacet
  facet normal -0.0980176 0.995185 0
    outer loop
      vertex 0 11 0
      vertex -2.14599 10.7886 2
      vertex 0 11 2
    endloop
  endfacet
  facet normal -0.0980176 0.995185 0
    outer loop
      vertex -2.14599 10.7886 2
      vertex 0 11 0
      vertex -2.14599 10.7886 0
    endloop
  endfacet
  facet normal -0.634393 0.773011 0
    outer loop
      vertex -6.11127 9.14616 0
      vertex -7.77817 7.77817 2
      vertex -6.11127 9.14616 2
    endloop
  endfacet
  facet normal -0.634393 0.773011 0
    outer loop
      vertex -7.77817 7.77817 2
      vertex -6.11127 9.14616 0
      vertex -7.77817 7.77817 0
    endloop
  endfacet
  facet normal 0.995185 0.0980176 0
    outer loop
      vertex 11 0 2
      vertex 10.7886 2.14599 0
      vertex 10.7886 2.14599 2
    endloop
  endfacet
  facet normal 0.995185 0.0980176 0
    outer loop
      vertex 10.7886 2.14599 0
      vertex 11 0 2
      vertex 11 0 0
    endloop
  endfacet
  facet normal 0.0980176 -0.995185 0
    outer loop
      vertex 0 -11 0
      vertex 2.14599 -10.7886 2
      vertex 0 -11 2
    endloop
  endfacet
  facet normal 0.0980176 -0.995185 0
    outer loop
      vertex 2.14599 -10.7886 2
      vertex 0 -11 0
      vertex 2.14599 -10.7886 0
    endloop
  endfacet
  facet normal 0.773011 -0.634393 0
    outer loop
      vertex 7.77817 -7.77817 2
      vertex 9.14616 -6.11127 0
      vertex 9.14616 -6.11127 2
    endloop
  endfacet
  facet normal 0.773011 -0.634393 0
    outer loop
      vertex 9.14616 -6.11127 0
      vertex 7.77817 -7.77817 2
      vertex 7.77817 -7.77817 0
    endloop
  endfacet
  facet normal 0.95694 -0.290285 0
    outer loop
      vertex 10.1627 -4.20952 2
      vertex 10.7886 -2.14599 0
      vertex 10.7886 -2.14599 2
    endloop
  endfacet
  facet normal 0.95694 -0.290285 0
    outer loop
      vertex 10.7886 -2.14599 0
      vertex 10.1627 -4.20952 2
      vertex 10.1627 -4.20952 0
    endloop
  endfacet
  facet normal 0.290285 -0.95694 0
    outer loop
      vertex 2.14599 -10.7886 0
      vertex 4.20952 -10.1627 2
      vertex 2.14599 -10.7886 2
    endloop
  endfacet
  facet normal 0.290285 -0.95694 0
    outer loop
      vertex 4.20952 -10.1627 2
      vertex 2.14599 -10.7886 0
      vertex 4.20952 -10.1627 0
    endloop
  endfacet
  facet normal 0.471397 -0.881921 0
    outer loop
      vertex 4.20952 -10.1627 0
      vertex 6.11127 -9.14616 2
      vertex 4.20952 -10.1627 2
    endloop
  endfacet
  facet normal 0.471397 -0.881921 0
    outer loop
      vertex 6.11127 -9.14616 2
      vertex 4.20952 -10.1627 0
      vertex 6.11127 -9.14616 0
    endloop
  endfacet
  facet normal -0.0980176 -0.995185 0
    outer loop
      vertex -2.14599 -10.7886 0
      vertex 0 -11 2
      vertex -2.14599 -10.7886 2
    endloop
  endfacet
  facet normal -0.0980176 -0.995185 -0
    outer loop
      vertex 0 -11 2
      vertex -2.14599 -10.7886 0
      vertex 0 -11 0
    endloop
  endfacet
  facet normal -0.634393 -0.773011 0
    outer loop
      vertex -7.77817 -7.77817 0
      vertex -6.11127 -9.14616 2
      vertex -7.77817 -7.77817 2
    endloop
  endfacet
  facet normal -0.634393 -0.773011 -0
    outer loop
      vertex -6.11127 -9.14616 2
      vertex -7.77817 -7.77817 0
      vertex -6.11127 -9.14616 0
    endloop
  endfacet
  facet normal -0.881921 -0.471397 0
    outer loop
      vertex -9.14616 -6.11127 0
      vertex -10.1627 -4.20952 2
      vertex -10.1627 -4.20952 0
    endloop
  endfacet
  facet normal -0.881921 -0.471397 0
    outer loop
      vertex -10.1627 -4.20952 2
      vertex -9.14616 -6.11127 0
      vertex -9.14616 -6.11127 2
    endloop
  endfacet
  facet normal -0.995185 -0.0980176 0
    outer loop
      vertex -10.7886 -2.14599 0
      vertex -11 0 2
      vertex -11 0 0
    endloop
  endfacet
  facet normal -0.995185 -0.0980176 0
    outer loop
      vertex -11 0 2
      vertex -10.7886 -2.14599 0
      vertex -10.7886 -2.14599 2
    endloop
  endfacet
  facet normal 0.290285 0.95694 -0
    outer loop
      vertex 4.20952 10.1627 0
      vertex 2.14599 10.7886 2
      vertex 4.20952 10.1627 2
    endloop
  endfacet
  facet normal 0.290285 0.95694 0
    outer loop
      vertex 2.14599 10.7886 2
      vertex 4.20952 10.1627 0
      vertex 2.14599 10.7886 0
    endloop
  endfacet
  facet normal 0 0 1
    outer loop
      vertex 2.5 0 2
      vertex 11 0 2
      vertex 10.7886 2.14599 2
    endloop
  endfacet
  facet normal 0 0 1
    outer loop
      vertex 2.41481 0.647047 2
      vertex 10.7886 2.14599 2
      vertex 10.1627 4.20952 2
    endloop
  endfacet
  facet normal 0 0 1
    outer loop
      vertex 11 0 2
      vertex 2.5 0 2
      vertex 10.7886 -2.14599 2
    endloop
  endfacet
  facet normal 0 0 1
    outer loop
      vertex 2.16506 1.25 2
      vertex 10.1627 4.20952 2
      vertex 9.14616 6.11127 2
    endloop
  endfacet
  facet normal -0 0 1
    outer loop
      vertex 2.41481 -0.647047 2
      vertex 10.7886 -2.14599 2
      vertex 2.5 0 2
    endloop
  endfacet
  facet normal 0 0 1
    outer loop
      vertex 1.76777 1.76777 2
      vertex 9.14616 6.11127 2
      vertex 7.77817 7.77817 2
    endloop
  endfacet
  facet normal 0 0 1
    outer loop
      vertex 10.7886 -2.14599 2
      vertex 2.41481 -0.647047 2
      vertex 10.1627 -4.20952 2
    endloop
  endfacet
  facet normal 0 0 1
    outer loop
      vertex 1.76777 1.76777 2
      vertex 7.77817 7.77817 2
      vertex 6.11127 9.14616 2
    endloop
  endfacet
  facet normal -0 0 1
    outer loop
      vertex 2.16506 -1.25 2
      vertex 10.1627 -4.20952 2
      vertex 2.41481 -0.647047 2
    endloop
  endfacet
  facet normal 0 0 1
    outer loop
      vertex 1.25 2.16506 2
      vertex 6.11127 9.14616 2
      vertex 4.20952 10.1627 2
    endloop
  endfacet
  facet normal 0 0 1
    outer loop
      vertex 10.1627 -4.20952 2
      vertex 2.16506 -1.25 2
      vertex 9.14616 -6.11127 2
    endloop
  endfacet
  facet normal -0 0 1
    outer loop
      vertex 1.76777 -1.76777 2
      vertex 9.14616 -6.11127 2
      vertex 2.16506 -1.25 2
    endloop
  endfacet
  facet normal 0 0 1
    outer loop
      vertex 10.7886 2.14599 2
      vertex 2.41481 0.647047 2
      vertex 2.5 0 2
    endloop
  endfacet
  facet normal 0 0 1
    outer loop
      vertex 10.1627 4.20952 2
      vertex 2.16506 1.25 2
      vertex 2.41481 0.647047 2
    endloop
  endfacet
  facet normal 0 0 1
    outer loop
      vertex 0.647047 2.41481 2
      vertex 4.20952 10.1627 2
      vertex 2.14599 10.7886 2
    endloop
  endfacet
  facet normal 0 0 1
    outer loop
      vertex 9.14616 6.11127 2
      vertex 1.76777 1.76777 2
      vertex 2.16506 1.25 2
    endloop
  endfacet
  facet normal 0 0 1
    outer loop
      vertex 6.11127 9.14616 2
      vertex 1.25 2.16506 2
      vertex 1.76777 1.76777 2
    endloop
  endfacet
  facet normal 0 0 1
    outer loop
      vertex 4.20952 10.1627 2
      vertex 0.647047 2.41481 2
      vertex 1.25 2.16506 2
    endloop
  endfacet
  facet normal 0 0 1
    outer loop
      vertex 0 2.5 2
      vertex 2.14599 10.7886 2
      vertex 0 11 2
    endloop
  endfacet
  facet normal 0 0 1
    outer loop
      vertex 2.14599 10.7886 2
      vertex 0 2.5 2
      vertex 0.647047 2.41481 2
    endloop
  endfacet
  facet normal -0 0 1
    outer loop
      vertex -2.14599 10.7886 2
      vertex 0 2.5 2
      vertex 0 11 2
    endloop
  endfacet
  facet normal 0 0 1
    outer loop
      vertex 0 2.5 2
      vertex -2.14599 10.7886 2
      vertex -0.647047 2.41481 2
    endloop
  endfacet
  facet normal -0 0 1
    outer loop
      vertex -4.20952 10.1627 2
      vertex -0.647047 2.41481 2
      vertex -2.14599 10.7886 2
    endloop
  endfacet
  facet normal 0 0 1
    outer loop
      vertex -0.647047 2.41481 2
      vertex -4.20952 10.1627 2
      vertex -1.25 2.16506 2
    endloop
  endfacet
  facet normal -0 0 1
    outer loop
      vertex -6.11127 9.14616 2
      vertex -1.25 2.16506 2
      vertex -4.20952 10.1627 2
    endloop
  endfacet
  facet normal 0 0 1
    outer loop
      vertex -1.25 2.16506 2
      vertex -6.11127 9.14616 2
      vertex -1.76777 1.76777 2
    endloop
  endfacet
  facet normal -0 0 1
    outer loop
      vertex -7.77817 7.77817 2
      vertex -1.76777 1.76777 2
      vertex -6.11127 9.14616 2
    endloop
  endfacet
  facet normal -0 0 1
    outer loop
      vertex -9.14616 6.11127 2
      vertex -1.76777 1.76777 2
      vertex -7.77817 7.77817 2
    endloop
  endfacet
  facet normal 0 0 1
    outer loop
      vertex 9.14616 -6.11127 2
      vertex 1.76777 -1.76777 2
      vertex 7.77817 -7.77817 2
    endloop
  endfacet
  facet normal 0 0 1
    outer loop
      vertex 7.77817 -7.77817 2
      vertex 1.76777 -1.76777 2
      vertex 6.11127 -9.14616 2
    endloop
  endfacet
  facet normal -0 0 1
    outer loop
      vertex 1.25 -2.16506 2
      vertex 6.11127 -9.14616 2
      vertex 1.76777 -1.76777 2
    endloop
  endfacet
  facet normal 0 0 1
    outer loop
      vertex 6.11127 -9.14616 2
      vertex 1.25 -2.16506 2
      vertex 4.20952 -10.1627 2
    endloop
  endfacet
  facet normal -0 0 1
    outer loop
      vertex 0.647047 -2.41481 2
      vertex 4.20952 -10.1627 2
      vertex 1.25 -2.16506 2
    endloop
  endfacet
  facet normal 0 0 1
    outer loop
      vertex 4.20952 -10.1627 2
      vertex 0.647047 -2.41481 2
      vertex 2.14599 -10.7886 2
    endloop
  endfacet
  facet normal -0 0 1
    outer loop
      vertex 0 -2.5 2
      vertex 2.14599 -10.7886 2
      vertex 0.647047 -2.41481 2
    endloop
  endfacet
  facet normal 0 0 1
    outer loop
      vertex 0 -2.5 2
      vertex 0 -11 2
      vertex 2.14599 -10.7886 2
    endloop
  endfacet
  facet normal 0 0 1
    outer loop
      vertex -2.14599 -10.7886 2
      vertex 0 -2.5 2
      vertex -0.647047 -2.41481 2
    endloop
  endfacet
  facet normal 0 0 1
    outer loop
      vertex -4.20952 -10.1627 2
      vertex -0.647047 -2.41481 2
      vertex -1.25 -2.16506 2
    endloop
  endfacet
  facet normal 0 0 1
    outer loop
      vertex -6.11127 -9.14616 2
      vertex -1.25 -2.16506 2
      vertex -1.76777 -1.76777 2
    endloop
  endfacet
  facet normal 0 0 1
    outer loop
      vertex 0 -2.5 2
      vertex -2.14599 -10.7886 2
      vertex 0 -11 2
    endloop
  endfacet
  facet normal 0 0 1
    outer loop
      vertex -9.14616 -6.11127 2
      vertex -1.76777 -1.76777 2
      vertex -2.16506 -1.25 2
    endloop
  endfacet
  facet normal 0 0 1
    outer loop
      vertex -10.1627 -4.20952 2
      vertex -2.16506 -1.25 2
      vertex -2.41481 -0.647047 2
    endloop
  endfacet
  facet normal 0 0 1
    outer loop
      vertex -10.7886 -2.14599 2
      vertex -2.41481 -0.647047 2
      vertex -2.5 0 2
    endloop
  endfacet
  facet normal 0 0 1
    outer loop
      vertex -1.76777 1.76777 2
      vertex -9.14616 6.11127 2
      vertex -2.16506 1.25 2
    endloop
  endfacet
  facet normal 0 0 1
    outer loop
      vertex -0.647047 -2.41481 2
      vertex -4.20952 -10.1627 2
      vertex -2.14599 -10.7886 2
    endloop
  endfacet
  facet normal -0 0 1
    outer loop
      vertex -10.1627 4.20952 2
      vertex -2.16506 1.25 2
      vertex -9.14616 6.11127 2
    endloop
  endfacet
  facet normal 0 0 1
    outer loop
      vertex -1.25 -2.16506 2
      vertex -6.11127 -9.14616 2
      vertex -4.20952 -10.1627 2
    endloop
  endfacet
  facet normal 0 0 1
    outer loop
      vertex -2.16506 1.25 2
      vertex -10.1627 4.20952 2
      vertex -2.41481 0.647047 2
    endloop
  endfacet
  facet normal 0 0 1
    outer loop
      vertex -1.76777 -1.76777 2
      vertex -7.77817 -7.77817 2
      vertex -6.11127 -9.14616 2
    endloop
  endfacet
  facet normal -0 0 1
    outer loop
      vertex -10.7886 2.14599 2
      vertex -2.41481 0.647047 2
      vertex -10.1627 4.20952 2
    endloop
  endfacet
  facet normal 0 0 1
    outer loop
      vertex -1.76777 -1.76777 2
      vertex -9.14616 -6.11127 2
      vertex -7.77817 -7.77817 2
    endloop
  endfacet
  facet normal 0 0 1
    outer loop
      vertex -2.41481 0.647047 2
      vertex -10.7886 2.14599 2
      vertex -2.5 0 2
    endloop
  endfacet
  facet normal 0 0 1
    outer loop
      vertex -2.16506 -1.25 2
      vertex -10.1627 -4.20952 2
      vertex -9.14616 -6.11127 2
    endloop
  endfacet
  facet normal 0 0 1
    outer loop
      vertex -11 0 2
      vertex -2.5 0 2
      vertex -10.7886 2.14599 2
    endloop
  endfacet
  facet normal 0 0 1
    outer loop
      vertex -2.41481 -0.647047 2
      vertex -10.7886 -2.14599 2
      vertex -10.1627 -4.20952 2
    endloop
  endfacet
  facet normal 0 0 1
    outer loop
      vertex -2.5 0 2
      vertex -11 0 2
      vertex -10.7886 -2.14599 2
    endloop
  endfacet
  facet normal -0.95694 0.290285 0
    outer loop
      vertex -10.7886 2.14599 0
      vertex -10.1627 4.20952 2
      vertex -10.1627 4.20952 0
    endloop
  endfacet
  facet normal -0.95694 0.290285 0
    outer loop
      vertex -10.1627 4.20952 2
      vertex -10.7886 2.14599 0
      vertex -10.7886 2.14599 2
    endloop
  endfacet
  facet normal -0.471397 -0.881921 0
    outer loop
      vertex -6.11127 -9.14616 0
      vertex -4.20952 -10.1627 2
      vertex -6.11127 -9.14616 2
    endloop
  endfacet
  facet normal -0.471397 -0.881921 -0
    outer loop
      vertex -4.20952 -10.1627 2
      vertex -6.11127 -9.14616 0
      vertex -4.20952 -10.1627 0
    endloop
  endfacet
  facet normal -0.95694 -0.290285 0
    outer loop
      vertex -10.1627 -4.20952 0
      vertex -10.7886 -2.14599 2
      vertex -10.7886 -2.14599 0
    endloop
  endfacet
  facet normal -0.95694 -0.290285 0
    outer loop
      vertex -10.7886 -2.14599 2
      vertex -10.1627 -4.20952 0
      vertex -10.1627 -4.20952 2
    endloop
  endfacet
  facet normal -0.773011 -0.634393 0
    outer loop
      vertex -7.77817 -7.77817 0
      vertex -9.14616 -6.11127 2
      vertex -9.14616 -6.11127 0
    endloop
  endfacet
  facet normal -0.773011 -0.634393 0
    outer loop
      vertex -9.14616 -6.11127 2
      vertex -7.77817 -7.77817 0
      vertex -7.77817 -7.77817 2
    endloop
  endfacet
  facet normal 0.881921 -0.471397 0
    outer loop
      vertex 9.14616 -6.11127 2
      vertex 10.1627 -4.20952 0
      vertex 10.1627 -4.20952 2
    endloop
  endfacet
  facet normal 0.881921 -0.471397 0
    outer loop
      vertex 10.1627 -4.20952 0
      vertex 9.14616 -6.11127 2
      vertex 9.14616 -6.11127 0
    endloop
  endfacet
  facet normal -0.991445 0.130527 0
    outer loop
      vertex -2.5 0 2
      vertex -2.41481 0.647047 24
      vertex -2.41481 0.647047 2
    endloop
  endfacet
  facet normal -0.991445 0.130527 0
    outer loop
      vertex -2.41481 0.647047 24
      vertex -2.5 0 2
      vertex -2.5 0 24
    endloop
  endfacet
  facet normal 0.608761 0.793354 -0
    outer loop
      vertex 1.76777 1.76777 2
      vertex 1.25 2.16506 24
      vertex 1.76777 1.76777 24
    endloop
  endfacet
  facet normal 0.608761 0.793354 0
    outer loop
      vertex 1.25 2.16506 24
      vertex 1.76777 1.76777 2
      vertex 1.25 2.16506 2
    endloop
  endfacet
  facet normal 0.991445 -0.130527 0
    outer loop
      vertex 2.41481 -0.647047 24
      vertex 2.5 0 2
      vertex 2.5 0 24
    endloop
  endfacet
  facet normal 0.991445 -0.130527 0
    outer loop
      vertex 2.5 0 2
      vertex 2.41481 -0.647047 24
      vertex 2.41481 -0.647047 2
    endloop
  endfacet
  facet normal -0.382683 -0.92388 0
    outer loop
      vertex -1.25 -2.16506 2
      vertex -0.647047 -2.41481 24
      vertex -1.25 -2.16506 24
    endloop
  endfacet
  facet normal -0.382683 -0.92388 -0
    outer loop
      vertex -0.647047 -2.41481 24
      vertex -1.25 -2.16506 2
      vertex -0.647047 -2.41481 2
    endloop
  endfacet
  facet normal 0.793354 0.60876 0
    outer loop
      vertex 2.16506 1.25 24
      vertex 1.76777 1.76777 2
      vertex 1.76777 1.76777 24
    endloop
  endfacet
  facet normal 0.793354 0.60876 0
    outer loop
      vertex 1.76777 1.76777 2
      vertex 2.16506 1.25 24
      vertex 2.16506 1.25 2
    endloop
  endfacet
  facet normal 0.923879 0.382684 0
    outer loop
      vertex 2.41481 0.647047 24
      vertex 2.16506 1.25 2
      vertex 2.16506 1.25 24
    endloop
  endfacet
  facet normal 0.923879 0.382684 0
    outer loop
      vertex 2.16506 1.25 2
      vertex 2.41481 0.647047 24
      vertex 2.41481 0.647047 2
    endloop
  endfacet
  facet normal -0.130527 0.991445 0
    outer loop
      vertex 0 2.5 2
      vertex -0.647047 2.41481 24
      vertex 0 2.5 24
    endloop
  endfacet
  facet normal -0.130527 0.991445 0
    outer loop
      vertex -0.647047 2.41481 24
      vertex 0 2.5 2
      vertex -0.647047 2.41481 2
    endloop
  endfacet
  facet normal -0.923879 0.382684 0
    outer loop
      vertex -2.41481 0.647047 2
      vertex -2.16506 1.25 24
      vertex -2.16506 1.25 2
    endloop
  endfacet
  facet normal -0.923879 0.382684 0
    outer loop
      vertex -2.16506 1.25 24
      vertex -2.41481 0.647047 2
      vertex -2.41481 0.647047 24
    endloop
  endfacet
  facet normal 0.608761 -0.793354 0
    outer loop
      vertex 1.25 -2.16506 2
      vertex 1.76777 -1.76777 24
      vertex 1.25 -2.16506 24
    endloop
  endfacet
  facet normal 0.608761 -0.793354 0
    outer loop
      vertex 1.76777 -1.76777 24
      vertex 1.25 -2.16506 2
      vertex 1.76777 -1.76777 2
    endloop
  endfacet
  facet normal -0.991445 -0.130527 0
    outer loop
      vertex -2.41481 -0.647047 2
      vertex -2.5 0 24
      vertex -2.5 0 2
    endloop
  endfacet
  facet normal -0.991445 -0.130527 0
    outer loop
      vertex -2.5 0 24
      vertex -2.41481 -0.647047 2
      vertex -2.41481 -0.647047 24
    endloop
  endfacet
  facet normal -0.608761 -0.793354 0
    outer loop
      vertex -1.76777 -1.76777 2
      vertex -1.25 -2.16506 24
      vertex -1.76777 -1.76777 24
    endloop
  endfacet
  facet normal -0.608761 -0.793354 -0
    outer loop
      vertex -1.25 -2.16506 24
      vertex -1.76777 -1.76777 2
      vertex -1.25 -2.16506 2
    endloop
  endfacet
  facet normal 0.130527 0.991445 -0
    outer loop
      vertex 0.647047 2.41481 2
      vertex 0 2.5 24
      vertex 0.647047 2.41481 24
    endloop
  endfacet
  facet normal 0.130527 0.991445 0
    outer loop
      vertex 0 2.5 24
      vertex 0.647047 2.41481 2
      vertex 0 2.5 2
    endloop
  endfacet
  facet normal 0 0 1
    outer loop
      vertex 2.41481 0.647047 24
      vertex 2.41481 -0.647047 24
      vertex 2.5 0 24
    endloop
  endfacet
  facet normal 0 0 1
    outer loop
      vertex 2.16506 1.25 24
      vertex 2.41481 -0.647047 24
      vertex 2.41481 0.647047 24
    endloop
  endfacet
  facet normal 0 0 1
    outer loop
      vertex 2.16506 1.25 24
      vertex 2.16506 -1.25 24
      vertex 2.41481 -0.647047 24
    endloop
  endfacet
  facet normal 0 0 1
    outer loop
      vertex 1.76777 1.76777 24
      vertex 2.16506 -1.25 24
      vertex 2.16506 1.25 24
    endloop
  endfacet
  facet normal 0 0 1
    outer loop
      vertex 1.76777 1.76777 24
      vertex 1.76777 -1.76777 24
      vertex 2.16506 -1.25 24
    endloop
  endfacet
  facet normal 0 0 1
    outer loop
      vertex 1.25 2.16506 24
      vertex 1.76777 -1.76777 24
      vertex 1.76777 1.76777 24
    endloop
  endfacet
  facet normal 0 0 1
    outer loop
      vertex 1.25 2.16506 24
      vertex 1.25 -2.16506 24
      vertex 1.76777 -1.76777 24
    endloop
  endfacet
  facet normal 0 0 1
    outer loop
      vertex 0.647047 2.41481 24
      vertex 1.25 -2.16506 24
      vertex 1.25 2.16506 24
    endloop
  endfacet
  facet normal 0 0 1
    outer loop
      vertex 0.647047 2.41481 24
      vertex 0.647047 -2.41481 24
      vertex 1.25 -2.16506 24
    endloop
  endfacet
  facet normal 0 0 1
    outer loop
      vertex 0 2.5 24
      vertex 0.647047 -2.41481 24
      vertex 0.647047 2.41481 24
    endloop
  endfacet
  facet normal 0 0 1
    outer loop
      vertex 0 2.5 24
      vertex 0 -2.5 24
      vertex 0.647047 -2.41481 24
    endloop
  endfacet
  facet normal -0 0 1
    outer loop
      vertex -0.647047 2.41481 24
      vertex 0 -2.5 24
      vertex 0 2.5 24
    endloop
  endfacet
  facet normal 0 0 1
    outer loop
      vertex -0.647047 2.41481 24
      vertex -0.647047 -2.41481 24
      vertex 0 -2.5 24
    endloop
  endfacet
  facet normal -0 0 1
    outer loop
      vertex -1.25 2.16506 24
      vertex -0.647047 -2.41481 24
      vertex -0.647047 2.41481 24
    endloop
  endfacet
  facet normal 0 0 1
    outer loop
      vertex -1.25 2.16506 24
      vertex -1.25 -2.16506 24
      vertex -0.647047 -2.41481 24
    endloop
  endfacet
  facet normal -0 0 1
    outer loop
      vertex -1.76777 1.76777 24
      vertex -1.25 -2.16506 24
      vertex -1.25 2.16506 24
    endloop
  endfacet
  facet normal 0 0 1
    outer loop
      vertex -1.76777 1.76777 24
      vertex -1.76777 -1.76777 24
      vertex -1.25 -2.16506 24
    endloop
  endfacet
  facet normal -0 0 1
    outer loop
      vertex -2.16506 1.25 24
      vertex -1.76777 -1.76777 24
      vertex -1.76777 1.76777 24
    endloop
  endfacet
  facet normal 0 0 1
    outer loop
      vertex -2.16506 1.25 24
      vertex -2.16506 -1.25 24
      vertex -1.76777 -1.76777 24
    endloop
  endfacet
  facet normal -0 0 1
    outer loop
      vertex -2.41481 0.647047 24
      vertex -2.16506 -1.25 24
      vertex -2.16506 1.25 24
    endloop
  endfacet
  facet normal 0 0 1
    outer loop
      vertex -2.41481 0.647047 24
      vertex -2.41481 -0.647047 24
      vertex -2.16506 -1.25 24
    endloop
  endfacet
  facet normal 0 -0 1
    outer loop
      vertex -2.41481 -0.647047 24
      vertex -2.41481 0.647047 24
      vertex -2.5 0 24
    endloop
  endfacet
  facet normal -0.793354 0.60876 0
    outer loop
      vertex -2.16506 1.25 2
      vertex -1.76777 1.76777 24
      vertex -1.76777 1.76777 2
    endloop
  endfacet
  facet normal -0.793354 0.60876 0
    outer loop
      vertex -1.76777 1.76777 24
      vertex -2.16506 1.25 2
      vertex -2.16506 1.25 24
    endloop
  endfacet
  facet normal -0.382684 0.923879 0
    outer loop
      vertex -0.647047 2.41481 2
      vertex -1.25 2.16506 24
      vertex -0.647047 2.41481 24
    endloop
  endfacet
  facet normal -0.382684 0.923879 0
    outer loop
      vertex -1.25 2.16506 24
      vertex -0.647047 2.41481 2
      vertex -1.25 2.16506 2
    endloop
  endfacet
  facet normal -0.60876 0.793354 0
    outer loop
      vertex -1.25 2.16506 2
      vertex -1.76777 1.76777 24
      vertex -1.25 2.16506 24
    endloop
  endfacet
  facet normal -0.60876 0.793354 0
    outer loop
      vertex -1.76777 1.76777 24
      vertex -1.25 2.16506 2
      vertex -1.76777 1.76777 2
    endloop
  endfacet
  facet normal 0.991445 0.130527 0
    outer loop
      vertex 2.5 0 24
      vertex 2.41481 0.647047 2
      vertex 2.41481 0.647047 24
    endloop
  endfacet
  facet normal 0.991445 0.130527 0
    outer loop
      vertex 2.41481 0.647047 2
      vertex 2.5 0 24
      vertex 2.5 0 2
    endloop
  endfacet
  facet normal 0.130527 -0.991445 0
    outer loop
      vertex 0 -2.5 2
      vertex 0.647047 -2.41481 24
      vertex 0 -2.5 24
    endloop
  endfacet
  facet normal 0.130527 -0.991445 0
    outer loop
      vertex 0.647047 -2.41481 24
      vertex 0 -2.5 2
      vertex 0.647047 -2.41481 2
    endloop
  endfacet
  facet normal 0.793354 -0.608761 0
    outer loop
      vertex 1.76777 -1.76777 24
      vertex 2.16506 -1.25 2
      vertex 2.16506 -1.25 24
    endloop
  endfacet
  facet normal 0.793354 -0.608761 0
    outer loop
      vertex 2.16506 -1.25 2
      vertex 1.76777 -1.76777 24
      vertex 1.76777 -1.76777 2
    endloop
  endfacet
  facet normal 0.92388 -0.382683 0
    outer loop
      vertex 2.16506 -1.25 24
      vertex 2.41481 -0.647047 2
      vertex 2.41481 -0.647047 24
    endloop
  endfacet
  facet normal 0.92388 -0.382683 0
    outer loop
      vertex 2.41481 -0.647047 2
      vertex 2.16506 -1.25 24
      vertex 2.16506 -1.25 2
    endloop
  endfacet
  facet normal 0.382683 -0.92388 0
    outer loop
      vertex 0.647047 -2.41481 2
      vertex 1.25 -2.16506 24
      vertex 0.647047 -2.41481 24
    endloop
  endfacet
  facet normal 0.382683 -0.92388 0
    outer loop
      vertex 1.25 -2.16506 24
      vertex 0.647047 -2.41481 2
      vertex 1.25 -2.16506 2
    endloop
  endfacet
  facet normal -0.130527 -0.991445 0
    outer loop
      vertex -0.647047 -2.41481 2
      vertex 0 -2.5 24
      vertex -0.647047 -2.41481 24
    endloop
  endfacet
  facet normal -0.130527 -0.991445 -0
    outer loop
      vertex 0 -2.5 24
      vertex -0.647047 -2.41481 2
      vertex 0 -2.5 2
    endloop
  endfacet
  facet normal -0.923879 -0.382684 0
    outer loop
      vertex -2.16506 -1.25 2
      vertex -2.41481 -0.647047 24
      vertex -2.41481 -0.647047 2
    endloop
  endfacet
  facet normal -0.923879 -0.382684 0
    outer loop
      vertex -2.41481 -0.647047 24
      vertex -2.16506 -1.25 2
      vertex -2.16506 -1.25 24
    endloop
  endfacet
  facet normal 0.382683 0.92388 -0
    outer loop
      vertex 1.25 2.16506 2
      vertex 0.647047 2.41481 24
      vertex 1.25 2.16506 24
    endloop
  endfacet
  facet normal 0.382683 0.92388 0
    outer loop
      vertex 0.647047 2.41481 24
      vertex 1.25 2.16506 2
      vertex 0.647047 2.41481 2
    endloop
  endfacet
  facet normal -0.793354 -0.60876 0
    outer loop
      vertex -1.76777 -1.76777 2
      vertex -2.16506 -1.25 24
      vertex -2.16506 -1.25 2
    endloop
  endfacet
  facet normal -0.793354 -0.60876 0
    outer loop
      vertex -2.16506 -1.25 24
      vertex -1.76777 -1.76777 2
      vertex -1.76777 -1.76777 24
    endloop
  endfacet
  facet normal -0.965926 -0.258819 0
    outer loop
      vertex 17.025 15.5 -5
      vertex 16.8207 16.2625 0
      vertex 16.8207 16.2625 -5
    endloop
  endfacet
  facet normal -0.965926 -0.258819 0
    outer loop
      vertex 16.8207 16.2625 0
      vertex 17.025 15.5 -5
      vertex 17.025 15.5 0
    endloop
  endfacet
  facet normal 0.258819 -0.965926 0
    outer loop
      vertex 14.7375 16.8207 -5
      vertex 15.5 17.025 0
      vertex 14.7375 16.8207 0
    endloop
  endfacet
  facet normal 0.258819 -0.965926 0
    outer loop
      vertex 15.5 17.025 0
      vertex 14.7375 16.8207 -5
      vertex 15.5 17.025 -5
    endloop
  endfacet
  facet normal 0 0 1
    outer loop
      vertex 16.8207 16.2625 -5
      vertex 16.8207 14.7375 -5
      vertex 17.025 15.5 -5
    endloop
  endfacet
  facet normal 0 0 1
    outer loop
      vertex 16.2625 16.8207 -5
      vertex 16.8207 14.7375 -5
      vertex 16.8207 16.2625 -5
    endloop
  endfacet
  facet normal 0 0 1
    outer loop
      vertex 16.2625 16.8207 -5
      vertex 16.2625 14.1793 -5
      vertex 16.8207 14.7375 -5
    endloop
  endfacet
  facet normal 0 0 1
    outer loop
      vertex 15.5 17.025 -5
      vertex 16.2625 14.1793 -5
      vertex 16.2625 16.8207 -5
    endloop
  endfacet
  facet normal 0 0 1
    outer loop
      vertex 15.5 17.025 -5
      vertex 15.5 13.975 -5
      vertex 16.2625 14.1793 -5
    endloop
  endfacet
  facet normal -0 0 1
    outer loop
      vertex 14.7375 16.8207 -5
      vertex 15.5 13.975 -5
      vertex 15.5 17.025 -5
    endloop
  endfacet
  facet normal 0 0 1
    outer loop
      vertex 14.7375 16.8207 -5
      vertex 14.7375 14.1793 -5
      vertex 15.5 13.975 -5
    endloop
  endfacet
  facet normal -0 0 1
    outer loop
      vertex 14.1793 16.2625 -5
      vertex 14.7375 14.1793 -5
      vertex 14.7375 16.8207 -5
    endloop
  endfacet
  facet normal 0 0 1
    outer loop
      vertex 14.1793 16.2625 -5
      vertex 14.1793 14.7375 -5
      vertex 14.7375 14.1793 -5
    endloop
  endfacet
  facet normal 0 -0 1
    outer loop
      vertex 14.1793 14.7375 -5
      vertex 14.1793 16.2625 -5
      vertex 13.975 15.5 -5
    endloop
  endfacet
  facet normal -0.707107 0.707106 0
    outer loop
      vertex 16.2625 14.1793 -5
      vertex 16.8207 14.7375 0
      vertex 16.8207 14.7375 -5
    endloop
  endfacet
  facet normal -0.707107 0.707106 0
    outer loop
      vertex 16.8207 14.7375 0
      vertex 16.2625 14.1793 -5
      vertex 16.2625 14.1793 0
    endloop
  endfacet
  facet normal -0.258819 -0.965926 0
    outer loop
      vertex 15.5 17.025 -5
      vertex 16.2625 16.8207 0
      vertex 15.5 17.025 0
    endloop
  endfacet
  facet normal -0.258819 -0.965926 -0
    outer loop
      vertex 16.2625 16.8207 0
      vertex 15.5 17.025 -5
      vertex 16.2625 16.8207 -5
    endloop
  endfacet
  facet normal -0.707107 -0.707107 0
    outer loop
      vertex 16.8207 16.2625 -5
      vertex 16.2625 16.8207 0
      vertex 16.2625 16.8207 -5
    endloop
  endfacet
  facet normal -0.707107 -0.707107 0
    outer loop
      vertex 16.2625 16.8207 0
      vertex 16.8207 16.2625 -5
      vertex 16.8207 16.2625 0
    endloop
  endfacet
  facet normal 0.965926 -0.258819 0
    outer loop
      vertex 13.975 15.5 0
      vertex 14.1793 16.2625 -5
      vertex 14.1793 16.2625 0
    endloop
  endfacet
  facet normal 0.965926 -0.258819 0
    outer loop
      vertex 14.1793 16.2625 -5
      vertex 13.975 15.5 0
      vertex 13.975 15.5 -5
    endloop
  endfacet
  facet normal 0.965926 0.258819 0
    outer loop
      vertex 14.1793 14.7375 0
      vertex 13.975 15.5 -5
      vertex 13.975 15.5 0
    endloop
  endfacet
  facet normal 0.965926 0.258819 0
    outer loop
      vertex 13.975 15.5 -5
      vertex 14.1793 14.7375 0
      vertex 14.1793 14.7375 -5
    endloop
  endfacet
  facet normal 0.707106 -0.707107 0
    outer loop
      vertex 14.1793 16.2625 -5
      vertex 14.7375 16.8207 0
      vertex 14.1793 16.2625 0
    endloop
  endfacet
  facet normal 0.707106 -0.707107 0
    outer loop
      vertex 14.7375 16.8207 0
      vertex 14.1793 16.2625 -5
      vertex 14.7375 16.8207 -5
    endloop
  endfacet
  facet normal -0.258819 0.965926 0
    outer loop
      vertex 16.2625 14.1793 -5
      vertex 15.5 13.975 0
      vertex 16.2625 14.1793 0
    endloop
  endfacet
  facet normal -0.258819 0.965926 0
    outer loop
      vertex 15.5 13.975 0
      vertex 16.2625 14.1793 -5
      vertex 15.5 13.975 -5
    endloop
  endfacet
  facet normal 0.707107 0.707107 0
    outer loop
      vertex 14.7375 14.1793 0
      vertex 14.1793 14.7375 -5
      vertex 14.1793 14.7375 0
    endloop
  endfacet
  facet normal 0.707107 0.707107 0
    outer loop
      vertex 14.1793 14.7375 -5
      vertex 14.7375 14.1793 0
      vertex 14.7375 14.1793 -5
    endloop
  endfacet
  facet normal -0.965926 0.258819 0
    outer loop
      vertex 16.8207 14.7375 -5
      vertex 17.025 15.5 0
      vertex 17.025 15.5 -5
    endloop
  endfacet
  facet normal -0.965926 0.258819 0
    outer loop
      vertex 17.025 15.5 0
      vertex 16.8207 14.7375 -5
      vertex 16.8207 14.7375 0
    endloop
  endfacet
  facet normal 0.258819 0.965926 -0
    outer loop
      vertex 15.5 13.975 -5
      vertex 14.7375 14.1793 0
      vertex 15.5 13.975 0
    endloop
  endfacet
  facet normal 0.258819 0.965926 0
    outer loop
      vertex 14.7375 14.1793 0
      vertex 15.5 13.975 -5
      vertex 14.7375 14.1793 -5
    endloop
  endfacet
  facet normal 0.258819 -0.965926 0
    outer loop
      vertex -16.2625 16.8207 -5
      vertex -15.5 17.025 0
      vertex -16.2625 16.8207 0
    endloop
  endfacet
  facet normal 0.258819 -0.965926 0
    outer loop
      vertex -15.5 17.025 0
      vertex -16.2625 16.8207 -5
      vertex -15.5 17.025 -5
    endloop
  endfacet
  facet normal 0 0 1
    outer loop
      vertex -14.1793 16.2625 -5
      vertex -14.1793 14.7375 -5
      vertex -13.975 15.5 -5
    endloop
  endfacet
  facet normal 0 0 1
    outer loop
      vertex -14.7375 16.8207 -5
      vertex -14.1793 14.7375 -5
      vertex -14.1793 16.2625 -5
    endloop
  endfacet
  facet normal 0 0 1
    outer loop
      vertex -14.7375 16.8207 -5
      vertex -14.7375 14.1793 -5
      vertex -14.1793 14.7375 -5
    endloop
  endfacet
  facet normal 0 0 1
    outer loop
      vertex -15.5 17.025 -5
      vertex -14.7375 14.1793 -5
      vertex -14.7375 16.8207 -5
    endloop
  endfacet
  facet normal 0 0 1
    outer loop
      vertex -15.5 17.025 -5
      vertex -15.5 13.975 -5
      vertex -14.7375 14.1793 -5
    endloop
  endfacet
  facet normal -0 0 1
    outer loop
      vertex -16.2625 16.8207 -5
      vertex -15.5 13.975 -5
      vertex -15.5 17.025 -5
    endloop
  endfacet
  facet normal 0 0 1
    outer loop
      vertex -16.2625 16.8207 -5
      vertex -16.2625 14.1793 -5
      vertex -15.5 13.975 -5
    endloop
  endfacet
  facet normal -0 0 1
    outer loop
      vertex -16.8207 16.2625 -5
      vertex -16.2625 14.1793 -5
      vertex -16.2625 16.8207 -5
    endloop
  endfacet
  facet normal 0 0 1
    outer loop
      vertex -16.8207 16.2625 -5
      vertex -16.8207 14.7375 -5
      vertex -16.2625 14.1793 -5
    endloop
  endfacet
  facet normal 0 -0 1
    outer loop
      vertex -16.8207 14.7375 -5
      vertex -16.8207 16.2625 -5
      vertex -17.025 15.5 -5
    endloop
  endfacet
  facet normal 0.707107 0.707106 0
    outer loop
      vertex -16.2625 14.1793 0
      vertex -16.8207 14.7375 -5
      vertex -16.8207 14.7375 0
    endloop
  endfacet
  facet normal 0.707107 0.707106 0
    outer loop
      vertex -16.8207 14.7375 -5
      vertex -16.2625 14.1793 0
      vertex -16.2625 14.1793 -5
    endloop
  endfacet
  facet normal -0.965926 -0.258819 0
    outer loop
      vertex -13.975 15.5 -5
      vertex -14.1793 16.2625 0
      vertex -14.1793 16.2625 -5
    endloop
  endfacet
  facet normal -0.965926 -0.258819 0
    outer loop
      vertex -14.1793 16.2625 0
      vertex -13.975 15.5 -5
      vertex -13.975 15.5 0
    endloop
  endfacet
  facet normal 0.965926 -0.258819 0
    outer loop
      vertex -17.025 15.5 0
      vertex -16.8207 16.2625 -5
      vertex -16.8207 16.2625 0
    endloop
  endfacet
  facet normal 0.965926 -0.258819 0
    outer loop
      vertex -16.8207 16.2625 -5
      vertex -17.025 15.5 0
      vertex -17.025 15.5 -5
    endloop
  endfacet
  facet normal 0.707107 -0.707107 0
    outer loop
      vertex -16.8207 16.2625 0
      vertex -16.2625 16.8207 -5
      vertex -16.2625 16.8207 0
    endloop
  endfacet
  facet normal 0.707107 -0.707107 0
    outer loop
      vertex -16.2625 16.8207 -5
      vertex -16.8207 16.2625 0
      vertex -16.8207 16.2625 -5
    endloop
  endfacet
  facet normal 0.965926 0.258819 0
    outer loop
      vertex -16.8207 14.7375 0
      vertex -17.025 15.5 -5
      vertex -17.025 15.5 0
    endloop
  endfacet
  facet normal 0.965926 0.258819 0
    outer loop
      vertex -17.025 15.5 -5
      vertex -16.8207 14.7375 0
      vertex -16.8207 14.7375 -5
    endloop
  endfacet
  facet normal 0.258819 0.965926 -0
    outer loop
      vertex -15.5 13.975 -5
      vertex -16.2625 14.1793 0
      vertex -15.5 13.975 0
    endloop
  endfacet
  facet normal 0.258819 0.965926 0
    outer loop
      vertex -16.2625 14.1793 0
      vertex -15.5 13.975 -5
      vertex -16.2625 14.1793 -5
    endloop
  endfacet
  facet normal -0.258819 -0.965926 0
    outer loop
      vertex -15.5 17.025 -5
      vertex -14.7375 16.8207 0
      vertex -15.5 17.025 0
    endloop
  endfacet
  facet normal -0.258819 -0.965926 -0
    outer loop
      vertex -14.7375 16.8207 0
      vertex -15.5 17.025 -5
      vertex -14.7375 16.8207 -5
    endloop
  endfacet
  facet normal -0.707106 -0.707107 0
    outer loop
      vertex -14.7375 16.8207 -5
      vertex -14.1793 16.2625 0
      vertex -14.7375 16.8207 0
    endloop
  endfacet
  facet normal -0.707106 -0.707107 -0
    outer loop
      vertex -14.1793 16.2625 0
      vertex -14.7375 16.8207 -5
      vertex -14.1793 16.2625 -5
    endloop
  endfacet
  facet normal -0.965926 0.258819 0
    outer loop
      vertex -14.1793 14.7375 -5
      vertex -13.975 15.5 0
      vertex -13.975 15.5 -5
    endloop
  endfacet
  facet normal -0.965926 0.258819 0
    outer loop
      vertex -13.975 15.5 0
      vertex -14.1793 14.7375 -5
      vertex -14.1793 14.7375 0
    endloop
  endfacet
  facet normal -0.707107 0.707107 0
    outer loop
      vertex -14.7375 14.1793 -5
      vertex -14.1793 14.7375 0
      vertex -14.1793 14.7375 -5
    endloop
  endfacet
  facet normal -0.707107 0.707107 0
    outer loop
      vertex -14.1793 14.7375 0
      vertex -14.7375 14.1793 -5
      vertex -14.7375 14.1793 0
    endloop
  endfacet
  facet normal -0.258819 0.965926 0
    outer loop
      vertex -14.7375 14.1793 -5
      vertex -15.5 13.975 0
      vertex -14.7375 14.1793 0
    endloop
  endfacet
  facet normal -0.258819 0.965926 0
    outer loop
      vertex -15.5 13.975 0
      vertex -14.7375 14.1793 -5
      vertex -15.5 13.975 -5
    endloop
  endfacet
  facet normal 0.965926 0.258819 0
    outer loop
      vertex -16.8207 -16.2625 0
      vertex -17.025 -15.5 -5
      vertex -17.025 -15.5 0
    endloop
  endfacet
  facet normal 0.965926 0.258819 0
    outer loop
      vertex -17.025 -15.5 -5
      vertex -16.8207 -16.2625 0
      vertex -16.8207 -16.2625 -5
    endloop
  endfacet
  facet normal -0.707106 0.707107 0
    outer loop
      vertex -14.1793 -16.2625 -5
      vertex -14.7375 -16.8207 0
      vertex -14.1793 -16.2625 0
    endloop
  endfacet
  facet normal -0.707106 0.707107 0
    outer loop
      vertex -14.7375 -16.8207 0
      vertex -14.1793 -16.2625 -5
      vertex -14.7375 -16.8207 -5
    endloop
  endfacet
  facet normal 0 0 1
    outer loop
      vertex -14.1793 -14.7375 -5
      vertex -14.1793 -16.2625 -5
      vertex -13.975 -15.5 -5
    endloop
  endfacet
  facet normal 0 0 1
    outer loop
      vertex -14.7375 -14.1793 -5
      vertex -14.1793 -16.2625 -5
      vertex -14.1793 -14.7375 -5
    endloop
  endfacet
  facet normal 0 0 1
    outer loop
      vertex -14.7375 -14.1793 -5
      vertex -14.7375 -16.8207 -5
      vertex -14.1793 -16.2625 -5
    endloop
  endfacet
  facet normal 0 0 1
    outer loop
      vertex -15.5 -13.975 -5
      vertex -14.7375 -16.8207 -5
      vertex -14.7375 -14.1793 -5
    endloop
  endfacet
  facet normal 0 0 1
    outer loop
      vertex -15.5 -13.975 -5
      vertex -15.5 -17.025 -5
      vertex -14.7375 -16.8207 -5
    endloop
  endfacet
  facet normal -0 0 1
    outer loop
      vertex -16.2625 -14.1793 -5
      vertex -15.5 -17.025 -5
      vertex -15.5 -13.975 -5
    endloop
  endfacet
  facet normal 0 0 1
    outer loop
      vertex -16.2625 -14.1793 -5
      vertex -16.2625 -16.8207 -5
      vertex -15.5 -17.025 -5
    endloop
  endfacet
  facet normal -0 0 1
    outer loop
      vertex -16.8207 -14.7375 -5
      vertex -16.2625 -16.8207 -5
      vertex -16.2625 -14.1793 -5
    endloop
  endfacet
  facet normal 0 0 1
    outer loop
      vertex -16.8207 -14.7375 -5
      vertex -16.8207 -16.2625 -5
      vertex -16.2625 -16.8207 -5
    endloop
  endfacet
  facet normal 0 -0 1
    outer loop
      vertex -16.8207 -16.2625 -5
      vertex -16.8207 -14.7375 -5
      vertex -17.025 -15.5 -5
    endloop
  endfacet
  facet normal 0.258819 -0.965926 0
    outer loop
      vertex -16.2625 -14.1793 -5
      vertex -15.5 -13.975 0
      vertex -16.2625 -14.1793 0
    endloop
  endfacet
  facet normal 0.258819 -0.965926 0
    outer loop
      vertex -15.5 -13.975 0
      vertex -16.2625 -14.1793 -5
      vertex -15.5 -13.975 -5
    endloop
  endfacet
  facet normal 0.707107 0.707107 0
    outer loop
      vertex -16.2625 -16.8207 0
      vertex -16.8207 -16.2625 -5
      vertex -16.8207 -16.2625 0
    endloop
  endfacet
  facet normal 0.707107 0.707107 0
    outer loop
      vertex -16.8207 -16.2625 -5
      vertex -16.2625 -16.8207 0
      vertex -16.2625 -16.8207 -5
    endloop
  endfacet
  facet normal -0.258819 0.965926 0
    outer loop
      vertex -14.7375 -16.8207 -5
      vertex -15.5 -17.025 0
      vertex -14.7375 -16.8207 0
    endloop
  endfacet
  facet normal -0.258819 0.965926 0
    outer loop
      vertex -15.5 -17.025 0
      vertex -14.7375 -16.8207 -5
      vertex -15.5 -17.025 -5
    endloop
  endfacet
  facet normal -0.965926 0.258819 0
    outer loop
      vertex -14.1793 -16.2625 -5
      vertex -13.975 -15.5 0
      vertex -13.975 -15.5 -5
    endloop
  endfacet
  facet normal -0.965926 0.258819 0
    outer loop
      vertex -13.975 -15.5 0
      vertex -14.1793 -16.2625 -5
      vertex -14.1793 -16.2625 0
    endloop
  endfacet
  facet normal 0.965926 -0.258819 0
    outer loop
      vertex -17.025 -15.5 0
      vertex -16.8207 -14.7375 -5
      vertex -16.8207 -14.7375 0
    endloop
  endfacet
  facet normal 0.965926 -0.258819 0
    outer loop
      vertex -16.8207 -14.7375 -5
      vertex -17.025 -15.5 0
      vertex -17.025 -15.5 -5
    endloop
  endfacet
  facet normal 0.707107 -0.707106 0
    outer loop
      vertex -16.8207 -14.7375 0
      vertex -16.2625 -14.1793 -5
      vertex -16.2625 -14.1793 0
    endloop
  endfacet
  facet normal 0.707107 -0.707106 0
    outer loop
      vertex -16.2625 -14.1793 -5
      vertex -16.8207 -14.7375 0
      vertex -16.8207 -14.7375 -5
    endloop
  endfacet
  facet normal 0.258819 0.965926 -0
    outer loop
      vertex -15.5 -17.025 -5
      vertex -16.2625 -16.8207 0
      vertex -15.5 -17.025 0
    endloop
  endfacet
  facet normal 0.258819 0.965926 0
    outer loop
      vertex -16.2625 -16.8207 0
      vertex -15.5 -17.025 -5
      vertex -16.2625 -16.8207 -5
    endloop
  endfacet
  facet normal -0.258819 -0.965926 0
    outer loop
      vertex -15.5 -13.975 -5
      vertex -14.7375 -14.1793 0
      vertex -15.5 -13.975 0
    endloop
  endfacet
  facet normal -0.258819 -0.965926 -0
    outer loop
      vertex -14.7375 -14.1793 0
      vertex -15.5 -13.975 -5
      vertex -14.7375 -14.1793 -5
    endloop
  endfacet
  facet normal -0.707107 -0.707107 0
    outer loop
      vertex -14.1793 -14.7375 -5
      vertex -14.7375 -14.1793 0
      vertex -14.7375 -14.1793 -5
    endloop
  endfacet
  facet normal -0.707107 -0.707107 0
    outer loop
      vertex -14.7375 -14.1793 0
      vertex -14.1793 -14.7375 -5
      vertex -14.1793 -14.7375 0
    endloop
  endfacet
  facet normal -0.965926 -0.258819 0
    outer loop
      vertex -13.975 -15.5 -5
      vertex -14.1793 -14.7375 0
      vertex -14.1793 -14.7375 -5
    endloop
  endfacet
  facet normal -0.965926 -0.258819 0
    outer loop
      vertex -14.1793 -14.7375 0
      vertex -13.975 -15.5 -5
      vertex -13.975 -15.5 0
    endloop
  endfacet
  facet normal -0.258819 0.965926 0
    outer loop
      vertex 16.2625 -16.8207 -5
      vertex 15.5 -17.025 0
      vertex 16.2625 -16.8207 0
    endloop
  endfacet
  facet normal -0.258819 0.965926 0
    outer loop
      vertex 15.5 -17.025 0
      vertex 16.2625 -16.8207 -5
      vertex 15.5 -17.025 -5
    endloop
  endfacet
  facet normal -0.258819 -0.965926 0
    outer loop
      vertex 15.5 -13.975 -5
      vertex 16.2625 -14.1793 0
      vertex 15.5 -13.975 0
    endloop
  endfacet
  facet normal -0.258819 -0.965926 -0
    outer loop
      vertex 16.2625 -14.1793 0
      vertex 15.5 -13.975 -5
      vertex 16.2625 -14.1793 -5
    endloop
  endfacet
  facet normal -0.965926 -0.258819 0
    outer loop
      vertex 17.025 -15.5 -5
      vertex 16.8207 -14.7375 0
      vertex 16.8207 -14.7375 -5
    endloop
  endfacet
  facet normal -0.965926 -0.258819 0
    outer loop
      vertex 16.8207 -14.7375 0
      vertex 17.025 -15.5 -5
      vertex 17.025 -15.5 0
    endloop
  endfacet
  facet normal -0.707107 -0.707106 0
    outer loop
      vertex 16.8207 -14.7375 -5
      vertex 16.2625 -14.1793 0
      vertex 16.2625 -14.1793 -5
    endloop
  endfacet
  facet normal -0.707107 -0.707106 0
    outer loop
      vertex 16.2625 -14.1793 0
      vertex 16.8207 -14.7375 -5
      vertex 16.8207 -14.7375 0
    endloop
  endfacet
  facet normal 0.965926 0.258819 0
    outer loop
      vertex 14.1793 -16.2625 0
      vertex 13.975 -15.5 -5
      vertex 13.975 -15.5 0
    endloop
  endfacet
  facet normal 0.965926 0.258819 0
    outer loop
      vertex 13.975 -15.5 -5
      vertex 14.1793 -16.2625 0
      vertex 14.1793 -16.2625 -5
    endloop
  endfacet
  facet normal -0.707107 0.707107 0
    outer loop
      vertex 16.2625 -16.8207 -5
      vertex 16.8207 -16.2625 0
      vertex 16.8207 -16.2625 -5
    endloop
  endfacet
  facet normal -0.707107 0.707107 0
    outer loop
      vertex 16.8207 -16.2625 0
      vertex 16.2625 -16.8207 -5
      vertex 16.2625 -16.8207 0
    endloop
  endfacet
  facet normal 0.258819 0.965926 -0
    outer loop
      vertex 15.5 -17.025 -5
      vertex 14.7375 -16.8207 0
      vertex 15.5 -17.025 0
    endloop
  endfacet
  facet normal 0.258819 0.965926 0
    outer loop
      vertex 14.7375 -16.8207 0
      vertex 15.5 -17.025 -5
      vertex 14.7375 -16.8207 -5
    endloop
  endfacet
  facet normal 0.707106 0.707107 -0
    outer loop
      vertex 14.7375 -16.8207 -5
      vertex 14.1793 -16.2625 0
      vertex 14.7375 -16.8207 0
    endloop
  endfacet
  facet normal 0.707106 0.707107 0
    outer loop
      vertex 14.1793 -16.2625 0
      vertex 14.7375 -16.8207 -5
      vertex 14.1793 -16.2625 -5
    endloop
  endfacet
  facet normal -0.965926 0.258819 0
    outer loop
      vertex 16.8207 -16.2625 -5
      vertex 17.025 -15.5 0
      vertex 17.025 -15.5 -5
    endloop
  endfacet
  facet normal -0.965926 0.258819 0
    outer loop
      vertex 17.025 -15.5 0
      vertex 16.8207 -16.2625 -5
      vertex 16.8207 -16.2625 0
    endloop
  endfacet
  facet normal 0.965926 -0.258819 0
    outer loop
      vertex 13.975 -15.5 0
      vertex 14.1793 -14.7375 -5
      vertex 14.1793 -14.7375 0
    endloop
  endfacet
  facet normal 0.965926 -0.258819 0
    outer loop
      vertex 14.1793 -14.7375 -5
      vertex 13.975 -15.5 0
      vertex 13.975 -15.5 -5
    endloop
  endfacet
  facet normal 0 0 1
    outer loop
      vertex 16.8207 -14.7375 -5
      vertex 16.8207 -16.2625 -5
      vertex 17.025 -15.5 -5
    endloop
  endfacet
  facet normal 0 0 1
    outer loop
      vertex 16.2625 -14.1793 -5
      vertex 16.8207 -16.2625 -5
      vertex 16.8207 -14.7375 -5
    endloop
  endfacet
  facet normal 0 0 1
    outer loop
      vertex 16.2625 -14.1793 -5
      vertex 16.2625 -16.8207 -5
      vertex 16.8207 -16.2625 -5
    endloop
  endfacet
  facet normal 0 0 1
    outer loop
      vertex 15.5 -13.975 -5
      vertex 16.2625 -16.8207 -5
      vertex 16.2625 -14.1793 -5
    endloop
  endfacet
  facet normal 0 0 1
    outer loop
      vertex 15.5 -13.975 -5
      vertex 15.5 -17.025 -5
      vertex 16.2625 -16.8207 -5
    endloop
  endfacet
  facet normal -0 0 1
    outer loop
      vertex 14.7375 -14.1793 -5
      vertex 15.5 -17.025 -5
      vertex 15.5 -13.975 -5
    endloop
  endfacet
  facet normal 0 0 1
    outer loop
      vertex 14.7375 -14.1793 -5
      vertex 14.7375 -16.8207 -5
      vertex 15.5 -17.025 -5
    endloop
  endfacet
  facet normal -0 0 1
    outer loop
      vertex 14.1793 -14.7375 -5
      vertex 14.7375 -16.8207 -5
      vertex 14.7375 -14.1793 -5
    endloop
  endfacet
  facet normal 0 0 1
    outer loop
      vertex 14.1793 -14.7375 -5
      vertex 14.1793 -16.2625 -5
      vertex 14.7375 -16.8207 -5
    endloop
  endfacet
  facet normal 0 -0 1
    outer loop
      vertex 14.1793 -16.2625 -5
      vertex 14.1793 -14.7375 -5
      vertex 13.975 -15.5 -5
    endloop
  endfacet
  facet normal 0.707107 -0.707107 0
    outer loop
      vertex 14.1793 -14.7375 0
      vertex 14.7375 -14.1793 -5
      vertex 14.7375 -14.1793 0
    endloop
  endfacet
  facet normal 0.707107 -0.707107 0
    outer loop
      vertex 14.7375 -14.1793 -5
      vertex 14.1793 -14.7375 0
      vertex 14.1793 -14.7375 -5
    endloop
  endfacet
  facet normal 0.258819 -0.965926 0
    outer loop
      vertex 14.7375 -14.1793 -5
      vertex 15.5 -13.975 0
      vertex 14.7375 -14.1793 0
    endloop
  endfacet
  facet normal 0.258819 -0.965926 0
    outer loop
      vertex 15.5 -13.975 0
      vertex 14.7375 -14.1793 -5
      vertex 15.5 -13.975 -5
    endloop
  endfacet
endsolid OpenSCAD_Model
